# Blender 4.0.1
# www.blender.org
mtllib book1.mtl
o book1_redBookCover_0
v -0.053107 0.274037 -0.043369
v -0.053043 0.273951 -0.056913
v -0.058711 0.269921 -0.044178
v 0.248458 -0.127221 0.043369
v 0.248393 -0.127135 0.056912
v 0.242945 -0.131459 0.040302
v -0.053519 0.274585 0.043299
v -0.053583 0.274670 0.056813
v -0.040978 0.272873 0.047892
v 0.248869 -0.127768 -0.043299
v 0.248934 -0.127854 -0.056814
v 0.250713 -0.115246 -0.047892
v 0.248393 -0.127135 0.056912
v 0.248458 -0.127221 0.043369
v 0.250713 -0.115246 0.047892
v 0.248934 -0.127854 -0.056814
v 0.248869 -0.127768 -0.043299
v 0.242945 -0.131459 -0.040303
v -0.053043 0.273951 -0.056913
v -0.053107 0.274037 -0.043369
v -0.040978 0.272873 -0.047892
v -0.053583 0.274670 0.056813
v -0.053519 0.274585 0.043299
v -0.058711 0.269921 0.044178
v -0.053043 0.273951 -0.056913
v -0.345705 0.051593 -0.053891
v -0.344753 0.050224 -0.043200
v -0.058711 0.269921 -0.044178
v -0.046582 -0.346416 0.053890
v 0.248393 -0.127135 0.056912
v -0.053583 0.274670 0.056813
v -0.345705 0.051593 0.053890
v -0.046582 -0.346416 -0.053891
v 0.248934 -0.127854 -0.056814
v 0.242945 -0.131459 -0.040303
v -0.047632 -0.345120 -0.043475
v -0.040978 0.272873 -0.047892
v -0.040978 0.272873 0.047892
v 0.250713 -0.115246 0.047892
v 0.250713 -0.115246 -0.047892
v -0.345705 0.051593 0.053890
v -0.053583 0.274670 0.056813
v -0.058711 0.269921 0.044178
v -0.344753 0.050224 0.043199
v -0.046582 -0.346416 0.053890
v -0.345705 0.051593 0.053890
v -0.344753 0.050224 0.043199
v -0.047632 -0.345120 0.043475
v 0.248393 -0.127135 0.056912
v -0.046582 -0.346416 0.053890
v -0.047632 -0.345120 0.043475
v 0.242945 -0.131459 0.040302
v -0.345705 0.051593 -0.053891
v -0.046582 -0.346416 -0.053891
v -0.047632 -0.345120 -0.043475
v -0.344753 0.050224 -0.043200
v 0.248934 -0.127854 -0.056814
v -0.053043 0.273951 -0.056913
v -0.040978 0.272873 -0.047892
v 0.250713 -0.115246 -0.047892
v -0.053583 0.274670 0.056813
v 0.248393 -0.127135 0.056912
v 0.250713 -0.115246 0.047892
v -0.040978 0.272873 0.047892
v 0.248934 -0.127854 -0.056814
v -0.046582 -0.346416 -0.053891
v -0.345705 0.051593 -0.053891
v -0.053043 0.273951 -0.056913
v 0.248869 -0.127768 -0.043299
v 0.248458 -0.127221 0.043369
v 0.242945 -0.131459 0.040302
v 0.242945 -0.131459 -0.040303
v 0.248458 -0.127221 0.043369
v 0.248869 -0.127768 -0.043299
v 0.250713 -0.115246 -0.047892
v 0.250713 -0.115246 0.047892
v -0.053519 0.274585 0.043299
v -0.053107 0.274037 -0.043369
v -0.058711 0.269921 -0.044178
v -0.058711 0.269921 0.044178
v -0.053107 0.274037 -0.043369
v -0.053519 0.274585 0.043299
v -0.040978 0.272873 0.047892
v -0.040978 0.272873 -0.047892
vn -0.5912 0.8065 -0.0079
vn 0.6068 -0.7948 0.0079
vn 0.1372 0.9905 -0.0056
vn 0.9896 -0.1437 0.0056
vn 0.9823 -0.1872 0.0059
vn 0.5317 -0.8469 0.0079
vn 0.0933 0.9956 -0.0059
vn -0.6690 0.7433 -0.0079
vn -0.6056 0.7934 0.0610
vn -0.6056 0.7934 0.0609
vn -0.0067 -0.0048 1.0000
vn -0.0064 -0.0048 1.0000
vn 0.5913 -0.8019 0.0858
vn 0.7994 0.6008 -0.0000
vn -0.6046 0.7903 -0.0991
vn -0.7994 -0.6008 0.0058
vn -0.7994 -0.6008 0.0057
vn -0.7994 -0.6008 0.0001
vn 0.5937 -0.8030 -0.0528
vn 0.5937 -0.8030 -0.0527
vn -0.7994 -0.6008 -0.0057
vn -0.7994 -0.6008 -0.0058
vn -0.7994 -0.6008 -0.0001
vn 0.5644 0.4241 -0.7082
vn 0.5645 0.4242 -0.7081
vn 0.5645 0.4241 -0.7081
vn 0.5644 0.4242 0.7082
vn 0.5644 0.4243 0.7081
vn -0.0064 -0.0048 -1.0000
vn 0.5698 -0.8218 0.0041
vn 0.9863 -0.1651 0.0027
vn 0.9863 -0.1650 0.0027
vn -0.6310 0.7758 -0.0039
vn -0.6309 0.7758 -0.0039
vn 0.1158 0.9933 -0.0027
vt 0.115271 0.211895
vt 0.115273 0.120367
vt 0.083929 0.232618
vt 0.610109 0.750000
vt 0.644468 0.750000
vt 0.625000 0.750000
vt 0.547481 0.959492
vt 0.563651 0.954446
vt 0.550629 0.937366
vt 0.449785 0.033130
vt 0.433615 0.038176
vt 0.446636 0.055255
vt 0.563650 0.041196
vt 0.547524 0.035925
vt 0.550318 0.056605
vt 0.355958 0.750000
vt 0.390242 0.750000
vt 0.375000 0.750000
vt 0.433616 0.951426
vt 0.449741 0.956697
vt 0.446948 0.936016
vt 0.115273 0.888930
vt 0.115254 0.797600
vt 0.083799 0.777331
vt 0.119916 0.901434
vt 0.119916 0.140819
vt 0.099799 0.140417
vt 0.097067 0.886766
vt 0.980725 0.044141
vt 0.980725 0.950124
vt 0.135586 0.830348
vt 0.135586 0.201864
vt 0.116805 0.213986
vt 0.118964 0.830674
vt 0.142646 0.901040
vt 0.142646 0.140400
vt 0.119916 0.155071
vt 0.122529 0.901434
vt 0.091886 0.169429
vt 0.091887 0.858461
vt 0.103131 0.856521
vt 0.103131 0.171370
vt 0.116805 0.830674
vt 0.116805 0.202209
vt 0.100183 0.201877
vt 0.097926 0.818554
vt 0.114375 0.858461
vt 0.114375 0.169429
vt 0.103132 0.171370
vt 0.103131 0.856520
vt 0.030075 0.042497
vt 0.030075 0.948480
vt 0.132863 0.778589
vt 0.132863 0.221411
vt 0.103049 0.241127
vt 0.102940 0.759308
s 0
usemtl redBookCover
f 1/1/1 2/2/1 3/3/1
f 4/4/2 5/5/2 6/6/2
f 7/7/3 8/8/3 9/9/3
f 10/10/4 11/11/4 12/12/4
f 13/13/5 14/14/5 15/15/5
f 16/16/6 17/17/6 18/18/6
f 19/19/7 20/20/7 21/21/7
f 22/22/8 23/23/8 24/24/8
s 1
f 25/25/9 26/26/10 27/27/9
f 25/25/9 27/27/9 28/28/9
s 0
f 29/29/11 30/13/11 31/8/11
f 29/29/12 31/8/12 32/30/12
s 1
f 33/31/13 34/32/13 35/33/13
f 33/31/13 35/33/13 36/34/13
s 0
f 37/21/14 38/9/14 39/15/14
f 37/21/14 39/15/14 40/12/14
s 1
f 41/35/15 42/36/15 43/37/15
f 41/35/15 43/37/15 44/38/15
f 45/39/16 46/40/17 47/41/18
f 45/39/16 47/41/18 48/42/18
f 49/43/19 50/44/19 51/45/19
f 49/43/19 51/45/19 52/46/20
f 53/47/21 54/48/22 55/49/23
f 53/47/21 55/49/23 56/50/23
f 57/11/24 58/19/25 59/21/26
f 57/11/24 59/21/26 60/12/24
f 61/8/27 62/13/28 63/15/28
f 61/8/27 63/15/28 64/9/28
s 0
f 65/11/29 66/51/29 67/52/29
f 65/11/29 67/52/29 68/19/29
s 1
f 69/53/30 70/54/30 71/55/30
f 69/53/30 71/55/30 72/56/30
f 73/14/31 74/10/32 75/12/32
f 73/14/31 75/12/32 76/15/32
f 77/23/33 78/1/34 79/3/34
f 77/23/33 79/3/34 80/24/33
f 81/20/35 82/7/35 83/9/35
f 81/20/35 83/9/35 84/21/35
o book1_bookInterior_0
v 0.242945 -0.131459 -0.040303
v 0.242945 -0.131459 0.040302
v -0.047632 -0.345120 0.043475
v -0.047632 -0.345120 -0.043475
v -0.047632 -0.345120 -0.043475
v -0.047632 -0.345120 0.043475
v -0.344753 0.050224 0.043199
v -0.344753 0.050224 -0.043200
v -0.344753 0.050224 -0.043200
v -0.344753 0.050224 0.043199
v -0.058711 0.269921 0.044178
v -0.058711 0.269921 -0.044178
vn 0.5924 -0.8056 -0.0000
vn -0.7994 -0.6008 -0.0000
vn -0.6091 0.7931 -0.0000
vt 0.095708 0.085233
vt 0.030715 0.085233
vt 0.028157 0.921592
vt 0.098265 0.921592
vt 0.096242 0.148659
vt 0.028388 0.148659
vt 0.029988 0.868448
vt 0.099564 0.868448
vt 0.096773 0.111626
vt 0.030181 0.111625
vt 0.029426 0.904117
vt 0.097527 0.904117
s 0
usemtl bookInterior
f 85/57/36 86/58/36 87/59/36
f 85/57/36 87/59/36 88/60/36
f 89/61/37 90/62/37 91/63/37
f 89/61/37 91/63/37 92/64/37
f 93/65/38 94/66/38 95/67/38
f 93/65/38 95/67/38 96/68/38
