# Blender 4.0.1
# www.blender.org
mtllib book2.mtl
o book2_blueBookCover_0
v -0.053107 0.274037 -0.043369
v -0.053043 0.273951 -0.056913
v -0.058711 0.269921 -0.044178
v 0.248458 -0.127221 0.043369
v 0.248393 -0.127135 0.056912
v 0.242945 -0.131459 0.040302
v -0.053519 0.274585 0.043299
v -0.053583 0.274670 0.056813
v -0.040978 0.272873 0.047892
v 0.248869 -0.127768 -0.043299
v 0.248934 -0.127854 -0.056814
v 0.250713 -0.115246 -0.047892
v 0.248393 -0.127135 0.056912
v 0.248458 -0.127221 0.043369
v 0.250713 -0.115246 0.047892
v 0.248934 -0.127854 -0.056814
v 0.248869 -0.127768 -0.043299
v 0.242945 -0.131459 -0.040303
v -0.053043 0.273951 -0.056913
v -0.053107 0.274037 -0.043369
v -0.040978 0.272873 -0.047892
v -0.053583 0.274670 0.056813
v -0.053519 0.274585 0.043299
v -0.058711 0.269921 0.044178
v -0.053043 0.273951 -0.056913
v -0.345705 0.051593 -0.053891
v -0.344753 0.050224 -0.043200
v -0.058711 0.269921 -0.044178
v -0.046582 -0.346416 0.053890
v 0.248393 -0.127135 0.056912
v -0.053583 0.274670 0.056813
v -0.345705 0.051593 0.053890
v -0.046582 -0.346416 -0.053891
v 0.248934 -0.127854 -0.056814
v 0.242945 -0.131459 -0.040303
v -0.047632 -0.345120 -0.043475
v -0.040978 0.272873 -0.047892
v -0.040978 0.272873 0.047892
v 0.250713 -0.115246 0.047892
v 0.250713 -0.115246 -0.047892
v -0.345705 0.051593 0.053890
v -0.053583 0.274670 0.056813
v -0.058711 0.269921 0.044178
v -0.344753 0.050224 0.043199
v -0.046582 -0.346416 0.053890
v -0.345705 0.051593 0.053890
v -0.344753 0.050224 0.043199
v -0.047632 -0.345120 0.043475
v 0.248393 -0.127135 0.056912
v -0.046582 -0.346416 0.053890
v -0.047632 -0.345120 0.043475
v 0.242945 -0.131459 0.040302
v -0.345705 0.051593 -0.053891
v -0.046582 -0.346416 -0.053891
v -0.047632 -0.345120 -0.043475
v -0.344753 0.050224 -0.043200
v 0.248934 -0.127854 -0.056814
v -0.053043 0.273951 -0.056913
v -0.040978 0.272873 -0.047892
v 0.250713 -0.115246 -0.047892
v -0.053583 0.274670 0.056813
v 0.248393 -0.127135 0.056912
v 0.250713 -0.115246 0.047892
v -0.040978 0.272873 0.047892
v 0.248934 -0.127854 -0.056814
v -0.046582 -0.346416 -0.053891
v -0.345705 0.051593 -0.053891
v -0.053043 0.273951 -0.056913
v 0.248869 -0.127768 -0.043299
v 0.248458 -0.127221 0.043369
v 0.242945 -0.131459 0.040302
v 0.242945 -0.131459 -0.040303
v 0.248458 -0.127221 0.043369
v 0.248869 -0.127768 -0.043299
v 0.250713 -0.115246 -0.047892
v 0.250713 -0.115246 0.047892
v -0.053519 0.274585 0.043299
v -0.053107 0.274037 -0.043369
v -0.058711 0.269921 -0.044178
v -0.058711 0.269921 0.044178
v -0.053107 0.274037 -0.043369
v -0.053519 0.274585 0.043299
v -0.040978 0.272873 0.047892
v -0.040978 0.272873 -0.047892
vn -0.5912 0.8065 -0.0079
vn 0.6068 -0.7948 0.0079
vn 0.1372 0.9905 -0.0056
vn 0.9896 -0.1437 0.0056
vn 0.9823 -0.1872 0.0059
vn 0.5317 -0.8469 0.0079
vn 0.0933 0.9956 -0.0059
vn -0.6690 0.7433 -0.0079
vn -0.6056 0.7934 0.0610
vn -0.6056 0.7934 0.0609
vn -0.0067 -0.0048 1.0000
vn -0.0064 -0.0048 1.0000
vn 0.5913 -0.8019 0.0858
vn 0.7994 0.6008 -0.0000
vn -0.6046 0.7903 -0.0991
vn -0.7994 -0.6008 0.0058
vn -0.7994 -0.6008 0.0057
vn -0.7994 -0.6008 0.0001
vn -0.7994 -0.6008 0.0002
vn 0.5937 -0.8030 -0.0528
vn 0.5937 -0.8030 -0.0527
vn -0.7994 -0.6008 -0.0057
vn -0.7994 -0.6008 -0.0058
vn -0.7994 -0.6008 -0.0002
vn -0.7994 -0.6008 -0.0001
vn 0.5644 0.4241 -0.7082
vn 0.5645 0.4242 -0.7081
vn 0.5645 0.4241 -0.7081
vn 0.5644 0.4242 0.7082
vn 0.5644 0.4243 0.7081
vn -0.0064 -0.0048 -1.0000
vn 0.5698 -0.8218 0.0041
vn 0.9863 -0.1651 0.0027
vn 0.9863 -0.1650 0.0027
vn -0.6310 0.7758 -0.0039
vn -0.6309 0.7758 -0.0039
vn 0.1158 0.9933 -0.0027
vt 0.488942 0.354457
vt 0.488945 0.279337
vt 0.463220 0.371465
vt 0.458227 0.400846
vt 0.447207 0.400729
vt 0.460682 0.409221
vt 0.547481 0.959492
vt 0.563651 0.954446
vt 0.550629 0.937366
vt 0.449785 0.042856
vt 0.433615 0.038176
vt 0.446636 0.055255
vt 0.563650 0.041196
vt 0.547524 0.045651
vt 0.550318 0.056605
vt 0.539746 0.401707
vt 0.528749 0.401596
vt 0.526268 0.409949
vt 0.433616 0.951426
vt 0.449741 0.956697
vt 0.446948 0.936016
vt 0.488945 0.910115
vt 0.488929 0.835158
vt 0.463113 0.818523
vt 0.492755 0.920378
vt 0.492755 0.296123
vt 0.476244 0.295793
vt 0.474003 0.908339
vt 0.973958 0.044141
vt 0.973958 0.950124
vt 0.535671 0.842964
vt 0.527087 0.842984
vt 0.550318 0.072036
vt 0.446636 0.070686
vt 0.511410 0.920054
vt 0.511410 0.295779
vt 0.492755 0.307819
vt 0.494900 0.920378
vt 0.531881 0.705228
vt 0.531881 0.404564
vt 0.527505 0.405570
vt 0.527617 0.704221
vt 0.447488 0.842008
vt 0.456070 0.842191
vt 0.419665 0.868404
vt 0.419665 0.191509
vt 0.408619 0.193415
vt 0.408618 0.866497
vt 0.433615 0.038176
vt 0.030075 0.042497
vt 0.030075 0.948480
s 0
usemtl blueBookCover
f 1/1/1 2/2/1 3/3/1
f 4/4/2 5/5/2 6/6/2
f 7/7/3 8/8/3 9/9/3
f 10/10/4 11/11/4 12/12/4
f 13/13/5 14/14/5 15/15/5
f 16/16/6 17/17/6 18/18/6
f 19/19/7 20/20/7 21/21/7
f 22/22/8 23/23/8 24/24/8
s 1
f 25/25/9 26/26/10 27/27/9
f 25/25/9 27/27/9 28/28/9
s 0
f 29/29/11 30/13/11 31/8/11
f 29/29/12 31/8/12 32/30/12
s 1
f 33/31/13 34/16/13 35/18/13
f 33/31/13 35/18/13 36/32/13
s 0
f 37/21/14 38/9/14 39/33/14
f 37/21/14 39/33/14 40/34/14
s 1
f 41/35/15 42/36/15 43/37/15
f 41/35/15 43/37/15 44/38/15
f 45/39/16 46/40/17 47/41/18
f 45/39/16 47/41/18 48/42/19
f 49/5/20 50/43/20 51/44/20
f 49/5/20 51/44/20 52/6/21
f 53/45/22 54/46/23 55/47/24
f 53/45/22 55/47/24 56/48/25
f 57/49/26 58/19/27 59/21/28
f 57/49/26 59/21/28 60/12/26
f 61/8/29 62/13/30 63/15/30
f 61/8/29 63/15/30 64/9/30
s 0
f 65/49/31 66/50/31 67/51/31
f 65/49/31 67/51/31 68/19/31
s 1
f 69/17/32 70/4/32 71/6/32
f 69/17/32 71/6/32 72/18/32
f 73/14/33 74/10/34 75/34/34
f 73/14/33 75/34/34 76/33/34
f 77/23/35 78/1/36 79/3/36
f 77/23/35 79/3/36 80/24/35
f 81/20/37 82/7/37 83/9/37
f 81/20/37 83/9/37 84/21/37
o book2_bookInterior_0
v 0.242945 -0.131459 -0.040303
v 0.242945 -0.131459 0.040302
v -0.047632 -0.345120 0.043475
v -0.047632 -0.345120 -0.043475
v -0.047632 -0.345120 -0.043475
v -0.047632 -0.345120 0.043475
v -0.344753 0.050224 0.043199
v -0.344753 0.050224 -0.043200
v -0.344753 0.050224 -0.043200
v -0.344753 0.050224 0.043199
v -0.058711 0.269921 0.044178
v -0.058711 0.269921 -0.044178
vn 0.5924 -0.8056 -0.0000
vn -0.7994 -0.6008 -0.0000
vn -0.6091 0.7931 -0.0000
vt 0.095708 0.085233
vt 0.030715 0.085233
vt 0.028157 0.921592
vt 0.098265 0.921592
vt 0.096242 0.148659
vt 0.028388 0.148659
vt 0.029988 0.868448
vt 0.099564 0.868448
vt 0.096773 0.111626
vt 0.030181 0.111625
vt 0.029426 0.904117
vt 0.097527 0.904117
s 0
usemtl bookInterior
f 85/52/38 86/53/38 87/54/38
f 85/52/38 87/54/38 88/55/38
f 89/56/39 90/57/39 91/58/39
f 89/56/39 91/58/39 92/59/39
f 93/60/40 94/61/40 95/62/40
f 93/60/40 95/62/40 96/63/40
