# Blender 4.0.1
# www.blender.org
mtllib candlestick.mtl
o CandleStick
v -0.296340 0.296340 0.001561
v -0.094840 0.094840 -0.188144
v -0.296340 -0.296340 0.001561
v -0.094840 -0.094840 -0.188144
v 0.296340 0.296340 0.001561
v 0.094840 0.094840 -0.188144
v 0.296340 -0.296340 0.001561
v 0.094840 -0.094840 -0.188144
v -0.028058 0.034930 -0.041024
v -0.028058 0.034931 -3.053945
v -0.028058 -0.034930 -0.041024
v -0.028058 -0.034930 -3.053945
v 0.028058 0.034930 -0.041024
v 0.028058 0.034931 -3.053945
v 0.028058 -0.034930 -0.041024
v 0.028058 -0.034930 -3.053945
v -0.126262 -0.126262 -3.166092
v -0.040409 -0.040408 -3.052416
v -0.126262 0.126262 -3.166092
v -0.040409 0.040409 -3.052416
v 0.126262 -0.126262 -3.166092
v 0.040409 -0.040408 -3.052416
v 0.126262 0.126262 -3.166092
v 0.040409 0.040409 -3.052416
v -0.126262 0.126263 -3.416423
v -0.126262 -0.126262 -3.416423
v 0.126262 0.126263 -3.416423
v 0.126262 -0.126262 -3.416423
v -0.047743 -0.047743 -3.155015
v -0.015280 -0.015279 -3.047452
v -0.047743 0.047744 -3.155015
v -0.015280 0.015280 -3.047452
v 0.047743 -0.047743 -3.155015
v 0.015280 -0.015279 -3.047452
v 0.047743 0.047744 -3.155015
v 0.015280 0.015280 -3.047452
v -0.047743 0.047744 -3.391882
v -0.047743 -0.047743 -3.391882
v 0.047743 0.047744 -3.391882
v 0.047743 -0.047743 -3.391882
v -0.032073 0.032074 -3.411273
v -0.032073 -0.032073 -3.411273
v 0.032073 0.032074 -3.411273
v 0.032073 -0.032073 -3.411273
v -0.126262 -0.126262 -3.166092
v -0.126262 0.126262 -3.166092
v 0.126262 -0.126262 -3.166092
v 0.126262 0.126262 -3.166092
v -0.126262 0.126263 -3.416423
v -0.126262 -0.126262 -3.416423
v 0.126262 0.126263 -3.416423
v 0.126262 -0.126262 -3.416423
vn -0.6855 -0.0000 -0.7281
vn -0.0000 -0.6855 -0.7281
vn 0.6855 -0.0000 -0.7281
vn -0.0000 0.6855 -0.7281
vn -0.0000 -0.0000 1.0000
vn -0.0000 -0.0000 -1.0000
vn -1.0000 -0.0000 -0.0000
vn -0.0000 -1.0000 -0.0000
vn 1.0000 -0.0000 -0.0000
vn -0.0000 1.0000 -0.0000
vn -0.7980 -0.0000 0.6027
vn -0.0000 0.7980 0.6027
vn 0.7980 -0.0000 0.6027
vn -0.0000 -0.7980 0.6027
vn -0.6950 -0.6950 0.1846
vn -0.4869 -0.4869 0.7252
vn -0.4869 0.4869 0.7252
vn -0.6950 0.6950 0.1846
vn 0.4869 0.4869 0.7252
vn 0.6950 0.6950 0.1846
vn 0.4869 -0.4869 0.7252
vn 0.6950 -0.6950 0.1846
vn -0.6608 -0.6608 -0.3560
vn 0.6608 -0.6608 -0.3560
vn 0.6608 0.6608 -0.3560
vn 0.3416 -0.3416 -0.8756
vn 0.3416 0.3416 -0.8756
vn -0.6608 0.6608 -0.3560
vn -0.3416 0.3416 -0.8756
vn -0.3416 -0.3416 -0.8756
vt 0.203411 0.412281
vt 0.136111 0.344982
vt 0.136111 0.281630
vt 0.203411 0.214331
vt 0.072759 0.281630
vt 0.005460 0.214330
vt 0.072759 0.344982
vt 0.005460 0.412281
vt 0.005460 0.005460
vt 0.203411 0.005460
vt 0.203411 0.203411
vt 0.005460 0.203411
vt 0.271916 0.005460
vt 0.271916 0.994540
vt 0.248583 0.994540
vt 0.248583 0.005460
vt 0.301578 0.005460
vt 0.301578 0.994536
vt 0.282836 0.994536
vt 0.282836 0.005460
vt 0.237663 0.005460
vt 0.237663 0.994540
vt 0.214330 0.994540
vt 0.214331 0.005460
vt 0.331240 0.005460
vt 0.331240 0.994536
vt 0.312498 0.994536
vt 0.312498 0.005460
vt 0.115845 0.423201
vt 0.134588 0.423201
vt 0.134588 0.446534
vt 0.115845 0.446534
vt 0.086184 0.423201
vt 0.104926 0.423201
vt 0.104926 0.446534
vt 0.086184 0.446534
vt 0.342160 0.319452
vt 0.370834 0.276854
vt 0.397827 0.276854
vt 0.426501 0.319452
vt 0.342160 0.048059
vt 0.370834 0.005460
vt 0.397827 0.005460
vt 0.426501 0.048059
vt 0.437421 0.048059
vt 0.466095 0.005460
vt 0.493088 0.005460
vt 0.521762 0.048059
vt 0.342160 0.183756
vt 0.370834 0.141157
vt 0.397827 0.141157
vt 0.426501 0.183756
vt 0.985681 0.505834
vt 0.985681 0.994166
vt 0.501592 0.994166
vt 0.501592 0.505834
vt 0.048271 0.450194
vt 0.048271 0.423201
vt 0.075264 0.423201
vt 0.075264 0.450194
vt 0.489923 0.005834
vt 0.489923 0.494166
vt 0.005835 0.494166
vt 0.005835 0.005834
vt 0.985681 0.005834
vt 0.985681 0.494166
vt 0.501592 0.494166
vt 0.501592 0.005834
vt 0.489923 0.505834
vt 0.489923 0.994166
vt 0.005835 0.994166
vt 0.005835 0.505834
vt 0.437421 0.304450
vt 0.448263 0.267142
vt 0.458470 0.267142
vt 0.469313 0.304450
vt 0.512124 0.218915
vt 0.501282 0.256223
vt 0.491075 0.256223
vt 0.480232 0.218915
vt 0.437421 0.178464
vt 0.448263 0.141157
vt 0.458470 0.141157
vt 0.469313 0.178464
vt 0.469313 0.470886
vt 0.458470 0.508194
vt 0.448263 0.508194
vt 0.437421 0.470886
vt 0.437421 0.393128
vt 0.469313 0.393128
vt 0.145507 0.433408
vt 0.145507 0.423201
vt 0.155714 0.423201
vt 0.155714 0.433408
vt 0.437421 0.256223
vt 0.469313 0.256223
vt 0.480232 0.141157
vt 0.512124 0.141157
vt 0.469313 0.382208
vt 0.437421 0.382208
vt 0.037352 0.455093
vt 0.005460 0.455093
vt 0.005460 0.423201
vt 0.037352 0.423201
s 1
usemtl CandleStick
f 1/1/1 2/2/1 4/3/1 3/4/1
f 3/4/2 4/3/2 8/5/2 7/6/2
f 7/6/3 8/5/3 6/7/3 5/8/3
f 5/8/4 6/7/4 2/2/4 1/1/4
f 3/9/5 7/10/5 5/11/5 1/12/5
f 8/5/6 4/3/6 2/2/6 6/7/6
f 9/13/7 10/14/7 12/15/7 11/16/7
f 11/17/8 12/18/8 16/19/8 15/20/8
f 15/21/9 16/22/9 14/23/9 13/24/9
f 13/25/10 14/26/10 10/27/10 9/28/10
f 11/29/5 15/30/5 13/31/5 9/32/5
f 16/33/6 12/34/6 10/35/6 14/36/6
f 17/37/11 18/38/11 20/39/11 19/40/11
f 19/41/12 20/42/12 24/43/12 23/44/12
f 23/45/13 24/46/13 22/47/13 21/48/13
f 21/49/14 22/50/14 18/51/14 17/52/14
f 24/57/5 20/58/5 18/59/5 22/60/5
f 29/73/15 30/74/16 32/75/17 31/76/18
f 31/77/18 32/78/17 36/79/19 35/80/20
f 35/81/20 36/82/19 34/83/21 33/84/22
f 33/85/22 34/86/21 30/87/16 29/88/15
f 33/85/22 29/88/15 38/89/23 40/90/24
f 36/91/19 32/92/17 30/93/16 34/94/21
f 39/95/25 40/96/24 44/96/26 43/95/27
f 31/77/18 35/80/20 39/97/25 37/98/28
f 29/73/15 31/76/18 37/99/28 38/100/23
f 35/81/20 33/84/22 40/96/24 39/95/25
f 41/101/29 43/102/27 44/103/26 42/104/30
f 38/100/23 37/99/28 41/99/29 42/100/30
f 40/90/24 38/89/23 42/89/30 44/90/26
f 37/98/28 39/97/25 43/97/27 41/98/29
usemtl Candle2
f 21/53/8 17/54/8 26/55/8 28/56/8
f 19/61/10 23/62/10 27/63/10 25/64/10
f 17/65/7 19/66/7 25/67/7 26/68/7
f 23/69/9 21/70/9 28/71/9 27/72/9
f 47/53/10 52/56/10 50/55/10 45/54/10
f 46/61/8 49/64/8 51/63/8 48/62/8
f 45/65/9 50/68/9 49/67/9 46/66/9
f 48/69/7 51/72/7 52/71/7 47/70/7
