# Blender 4.0.1
# www.blender.org
mtllib chair.mtl
o Chair
v 0.701659 -0.569815 -2.016203
v 0.668439 -0.519033 -0.016203
v 0.701659 -0.415865 -2.016203
v 0.668439 -0.466648 -0.016203
v 0.535560 -0.415865 -2.016203
v 0.568780 -0.519033 -0.016203
v 0.535560 -0.569815 -2.016203
v 0.568780 -0.466648 -0.016203
v 0.560234 -0.532259 -2.269118
v 0.560234 -0.453584 -2.269118
v 0.676985 -0.453584 -2.269118
v 0.676985 -0.532259 -2.269118
v 0.535560 -0.569816 -1.016203
v 0.701659 -0.569816 -1.016203
v 0.535560 -0.285132 -1.016203
v 0.701659 -0.285132 -1.016203
v 0.535560 0.827628 -1.016203
v 0.568780 0.777943 -0.016203
v 0.701659 0.827628 -1.016203
v 0.668439 0.777943 -0.016203
v 0.535560 -0.569816 -0.558064
v 0.701659 -0.569816 -0.563283
v 0.701659 -0.415866 -0.558064
v 0.535560 0.827628 -0.558064
v 0.701659 0.827628 -0.567039
v 0.535560 0.709939 -1.016203
v 0.701659 0.709939 -1.016203
v 0.668439 0.628890 -0.016203
v 0.568780 0.628890 -0.016203
v 0.701659 0.643889 -0.558064
v 0.535560 0.632478 -0.558064
v 0.535560 -0.409946 -0.558064
v 0.701659 0.491324 -1.016203
v 0.535560 0.491324 -1.016203
v 0.535560 0.360590 -1.237496
v 0.535560 0.709939 -1.237496
v 0.701659 0.709939 -1.237496
v 0.701659 0.360591 -1.237496
v 0.555573 0.386931 -1.355063
v 0.555573 0.683599 -1.355063
v 0.681646 0.683599 -1.355063
v 0.681646 0.386931 -1.355063
v 0.661721 -0.476112 -1.265765
v 0.575499 -0.476112 -1.265765
v 0.661721 -0.476112 -1.326794
v 0.575499 -0.476112 -1.326794
v -0.701659 -0.569815 -2.016203
v -0.668439 -0.519033 -0.016203
v -0.701659 -0.415865 -2.016203
v -0.668439 -0.466648 -0.016203
v -0.535560 -0.415865 -2.016203
v -0.568780 -0.519033 -0.016203
v -0.535560 -0.569815 -2.016203
v -0.568780 -0.466648 -0.016203
v -0.560234 -0.532258 -2.269118
v -0.560234 -0.453584 -2.269118
v -0.676985 -0.453584 -2.269118
v -0.676985 -0.532258 -2.269118
v -0.535560 -0.569815 -1.016203
v -0.701659 -0.569815 -1.016203
v -0.535560 -0.285132 -1.016203
v -0.701659 -0.285132 -1.016203
v -0.535560 0.827628 -1.016203
v -0.568780 0.777943 -0.016203
v -0.701659 0.827628 -1.016203
v -0.668439 0.777943 -0.016203
v -0.535560 -0.569815 -0.558064
v -0.701659 -0.569815 -0.563283
v -0.701659 -0.415865 -0.558064
v -0.535560 0.827628 -0.558064
v -0.701659 0.827628 -0.567039
v -0.535560 0.709940 -1.016203
v -0.701659 0.709940 -1.016203
v -0.668439 0.628890 -0.016203
v -0.568780 0.628890 -0.016203
v -0.701659 0.643889 -0.558064
v -0.535560 0.632478 -0.558064
v -0.535560 -0.409946 -0.558064
v -0.701659 0.491325 -1.016203
v -0.535560 0.491324 -1.016203
v -0.535560 0.360591 -1.237496
v -0.535560 0.709940 -1.237496
v -0.701659 0.709940 -1.237496
v -0.701659 0.360591 -1.237496
v -0.555573 0.386931 -1.355063
v -0.555573 0.683599 -1.355063
v -0.681646 0.683599 -1.355063
v -0.681646 0.386931 -1.355063
v -0.661721 -0.476112 -1.265765
v -0.575499 -0.476112 -1.265765
v -0.661721 -0.476112 -1.326794
v -0.575499 -0.476112 -1.326794
vn -0.0000 -0.0000 -1.0000
vn -0.0000 0.9916 -0.1296
vn -0.0000 -0.0000 1.0000
vn 1.0000 -0.0000 -0.0000
vn -0.0000 -1.0000 -0.0000
vn -0.0000 0.9891 -0.1475
vn 0.9953 -0.0000 -0.0971
vn -0.9953 -0.0000 -0.0971
vn -0.0000 -0.9892 -0.1469
vn -0.0000 1.0000 -0.0000
vn 0.9981 0.0016 0.0608
vn 0.0031 0.9959 0.0906
vn 0.9981 -0.0015 0.0609
vn 0.0018 -0.9957 0.0929
vn -0.9981 -0.0000 0.0612
vn 0.0222 0.9949 0.0987
vn 0.0429 -0.9989 -0.0171
vn 0.6967 0.7058 -0.1282
vn 0.8640 -0.3083 0.3980
vn 0.6527 -0.0206 -0.7574
vn 0.5306 0.5097 -0.6773
vn -0.0000 -0.8610 0.5086
vn 0.9045 0.3015 -0.3015
vn 0.9587 -0.2471 -0.1411
vn -0.4531 -0.2912 -0.8425
vn -0.3015 0.3015 -0.9045
vn -0.6967 0.7058 -0.1282
vn -0.8640 -0.3083 0.3980
vn -0.6527 -0.0206 -0.7574
vn -0.5306 0.5097 -0.6773
vn -0.6660 -0.0453 -0.7446
vn -0.7429 -0.0517 0.6674
vn 0.6660 -0.0453 -0.7446
vn 0.7429 -0.0517 0.6674
vn -1.0000 -0.0000 -0.0000
vn -0.9981 0.0016 0.0608
vn -0.0031 0.9959 0.0906
vn -0.9981 -0.0015 0.0609
vn -0.0018 -0.9957 0.0929
vn 0.9981 -0.0000 0.0612
vn -0.0222 0.9949 0.0987
vn -0.0429 -0.9989 -0.0171
vn -0.9045 0.3015 -0.3015
vn -0.9587 -0.2471 -0.1411
vn 0.4531 -0.2912 -0.8425
vn 0.3015 0.3015 -0.9045
vt 0.281868 0.572895
vt 0.281868 0.596493
vt 0.265967 0.596493
vt 0.265967 0.572895
vt 0.003791 0.716367
vt 0.003791 0.499874
vt 0.206956 0.499874
vt 0.206956 0.716367
vt 0.276554 0.604074
vt 0.276554 0.624217
vt 0.265967 0.624217
vt 0.265967 0.604074
vt 0.585035 0.257059
vt 0.585035 0.055048
vt 0.616150 0.055043
vt 0.642574 0.257051
vt 0.253855 0.256343
vt 0.253855 0.054472
vt 0.287426 0.054472
vt 0.287426 0.256343
vt 0.003791 0.466302
vt 0.206956 0.466302
vt 0.258386 0.471289
vt 0.258386 0.494887
vt 0.519915 0.716496
vt 0.362980 0.716496
vt 0.318794 0.716496
vt 0.318794 0.500003
vt 0.362980 0.500003
vt 0.519915 0.500003
vt 0.037362 0.256343
vt 0.037362 0.054472
vt 0.592604 0.003793
vt 0.608505 0.003791
vt 0.790267 0.757648
vt 0.821382 0.757648
vt 0.813744 0.808902
vt 0.797843 0.808902
vt 0.258842 0.003791
vt 0.282439 0.003791
vt 0.318794 0.466431
vt 0.295008 0.500003
vt 0.295008 0.466431
vt 0.253855 0.348828
vt 0.287426 0.347775
vt 0.585035 0.348554
vt 0.616150 0.349604
vt 0.844058 0.500003
vt 0.844058 0.716496
vt 0.751569 0.716496
vt 0.751569 0.500003
vt 0.295008 0.716496
vt 0.842246 0.750067
vt 0.751569 0.750067
vt 0.743988 0.466431
vt 0.743988 0.748874
vt 0.527496 0.748874
vt 0.527496 0.466431
vt 0.286110 0.496428
vt 0.265967 0.496428
vt 0.265967 0.466303
vt 0.286110 0.466303
vt 0.830344 0.349573
vt 0.843694 0.257022
vt 0.867480 0.257019
vt 0.867480 0.347755
vt 0.827283 0.458817
vt 0.857409 0.458813
vt 0.952958 0.743353
vt 0.952958 0.723210
vt 0.595269 0.458850
vt 0.605857 0.458849
vt 0.260569 0.458721
vt 0.280712 0.458721
vt 0.799508 0.257028
vt 0.037362 0.348828
vt 0.519915 0.466431
vt 0.362980 0.466431
vt 0.387559 0.866892
vt 0.376054 0.757648
vt 0.408366 0.757648
vt 0.398147 0.866892
vt 0.328579 0.866526
vt 0.295008 0.866526
vt 0.301533 0.757683
vt 0.321676 0.757648
vt 0.145333 0.757588
vt 0.165476 0.757519
vt 0.172561 0.866846
vt 0.138990 0.866846
vt 0.054260 0.866832
vt 0.044943 0.757519
vt 0.084385 0.757797
vt 0.084385 0.867044
vt 0.678386 0.970645
vt 0.644815 0.968339
vt 0.644815 0.757651
vt 0.678386 0.756455
vt 0.843694 0.212318
vt 0.773085 0.212328
vt 0.778391 0.188446
vt 0.838352 0.188438
vt 0.792722 0.816483
vt 0.826294 0.816483
vt 0.826294 0.862462
vt 0.792722 0.862462
vt 0.875062 0.047983
vt 0.875062 0.003797
vt 0.919765 0.003791
vt 0.919765 0.074400
vt 0.457100 0.757648
vt 0.490672 0.757648
vt 0.490672 0.802323
vt 0.457100 0.802323
vt 0.986021 0.526393
vt 0.960539 0.526393
vt 0.960539 0.466431
vt 0.986021 0.466431
vt 0.943647 0.009129
vt 0.943647 0.069090
vt 0.938067 0.243544
vt 0.925738 0.243545
vt 0.486627 0.826316
vt 0.461145 0.826316
vt 0.981994 0.700851
vt 0.964567 0.700851
vt 0.875062 0.251126
vt 0.908633 0.251126
vt 0.900561 0.420274
vt 0.883134 0.420274
vt 0.603938 0.206379
vt 0.603938 0.194051
vt 0.281868 0.565314
vt 0.265967 0.565314
vt 0.265967 0.541716
vt 0.281868 0.541716
vt 0.276554 0.651941
vt 0.265967 0.651941
vt 0.265967 0.631798
vt 0.276554 0.631798
vt 0.577453 0.257059
vt 0.519914 0.257051
vt 0.546338 0.055043
vt 0.577453 0.055048
vt 0.003791 0.256343
vt 0.003791 0.054472
vt 0.003791 0.749938
vt 0.206956 0.749938
vt 0.258386 0.721354
vt 0.258386 0.744951
vt 0.553983 0.003791
vt 0.569884 0.003793
vt 0.782685 0.757648
vt 0.775109 0.808902
vt 0.759208 0.808902
vt 0.751570 0.757648
vt 0.008778 0.003791
vt 0.032375 0.003791
vt 0.318794 0.750067
vt 0.295008 0.750067
vt 0.003791 0.347775
vt 0.577453 0.348554
vt 0.546338 0.349604
vt 0.842246 0.466431
vt 0.751569 0.466431
vt 0.265967 0.534135
vt 0.265967 0.504009
vt 0.286110 0.504009
vt 0.286110 0.534135
vt 0.332144 0.349573
vt 0.295008 0.347755
vt 0.295008 0.257019
vt 0.318794 0.257022
vt 0.335205 0.458817
vt 0.305079 0.458813
vt 0.952958 0.473146
vt 0.952958 0.493289
vt 0.567219 0.458850
vt 0.556631 0.458849
vt 0.030648 0.458721
vt 0.010505 0.458721
vt 0.362980 0.257028
vt 0.519915 0.750067
vt 0.362980 0.750067
vt 0.356967 0.866892
vt 0.346379 0.866892
vt 0.336160 0.757648
vt 0.368473 0.757648
vt 0.221296 0.866397
vt 0.228199 0.757519
vt 0.248342 0.757554
vt 0.254867 0.866397
vt 0.207371 0.757588
vt 0.213714 0.866846
vt 0.180143 0.866846
vt 0.187228 0.757519
vt 0.101283 0.757732
vt 0.131408 0.757519
vt 0.131408 0.866766
vt 0.091967 0.867044
vt 0.637233 0.756455
vt 0.637233 0.970645
vt 0.603662 0.969449
vt 0.603662 0.758761
vt 0.318794 0.212318
vt 0.324136 0.188438
vt 0.384097 0.188446
vt 0.389403 0.212328
vt 0.785141 0.816483
vt 0.785141 0.862462
vt 0.751570 0.862462
vt 0.751570 0.816483
vt 0.527496 0.952017
vt 0.572199 0.925600
vt 0.572199 0.996209
vt 0.527496 0.996203
vt 0.449519 0.757648
vt 0.449519 0.802323
vt 0.415947 0.802323
vt 0.415947 0.757648
vt 0.976709 0.178249
vt 0.976709 0.238211
vt 0.951228 0.238211
vt 0.951228 0.178249
vt 0.596081 0.930910
vt 0.596081 0.990871
vt 0.578172 0.756455
vt 0.590501 0.756456
vt 0.445474 0.826316
vt 0.419992 0.826316
vt 0.955255 0.003791
vt 0.972682 0.003791
vt 0.037362 0.757519
vt 0.029290 0.926667
vt 0.011863 0.926667
vt 0.003791 0.757519
vt 0.558550 0.194051
vt 0.558550 0.206379
vt 0.717083 0.972947
vt 0.685967 0.972947
vt 0.685967 0.756455
vt 0.717083 0.756455
s 1
usemtl Chair
f 12/1/1 9/2/1 10/3/1 11/4/1
f 61/5/2 15/6/2 5/7/2 51/8/2
f 6/9/3 2/10/3 4/11/3 8/12/3
f 14/13/4 1/14/4 3/15/4 16/16/4
f 13/17/5 7/18/5 1/19/5 14/20/5
f 16/21/2 3/22/2 5/7/2 15/6/2
f 5/7/6 3/22/6 11/23/6 10/24/6
f 61/25/1 80/26/1 72/27/1 26/28/1 34/29/1 15/30/1
f 13/17/5 59/31/5 53/32/5 7/18/5
f 3/15/7 1/14/7 12/33/7 11/34/7
f 7/35/8 5/36/8 10/37/8 9/38/8
f 1/19/9 7/18/9 9/39/9 12/40/9
f 27/41/1 26/28/1 17/42/1 19/43/1
f 21/44/5 13/17/5 14/20/5 22/45/5
f 22/46/4 14/13/4 16/16/4 23/47/4
f 70/48/10 24/49/10 17/50/10 63/51/10
f 72/27/1 63/52/1 17/42/1 26/28/1
f 25/53/10 19/54/10 17/50/10 24/49/10
f 70/55/3 67/56/3 21/57/3 24/58/3
f 29/59/3 28/60/3 20/61/3 18/62/3
f 30/63/4 27/64/4 19/65/4 25/66/4
f 28/67/11 30/63/11 25/66/11 20/68/11
f 20/69/12 25/53/12 24/49/12 18/70/12
f 2/71/13 22/46/13 23/47/13 4/72/13
f 6/73/14 21/44/14 22/45/14 2/74/14
f 23/47/4 16/16/4 33/75/4 27/64/4 30/63/4
f 21/44/5 67/76/5 59/31/5 13/17/5
f 16/77/1 15/30/1 34/29/1 33/78/1
f 8/79/15 32/80/15 21/81/15 6/82/15
f 23/83/16 32/84/16 8/85/16 4/86/16
f 28/87/17 29/88/17 31/89/17 30/90/17
f 18/91/15 24/92/15 31/93/15 29/94/15
f 30/95/3 31/96/3 32/97/3 23/98/3
f 37/99/18 38/100/19 42/101/20 41/102/21
f 33/103/22 34/104/22 35/105/22 38/106/22
f 27/64/23 33/75/24 38/100/19 37/99/18
f 34/107/25 26/108/26 36/109/27 35/110/28
f 26/111/26 27/112/23 37/113/18 36/114/27
f 42/115/20 39/116/29 40/117/30 41/118/21
f 35/110/28 36/109/27 40/119/30 39/120/29
f 35/110/28 39/120/29 46/121/31 44/122/32
f 36/114/27 37/113/18 41/123/21 40/124/30
f 39/116/29 42/115/20 45/125/33 46/126/31
f 38/127/19 35/128/28 44/129/32 43/130/34
f 42/101/20 38/100/19 43/131/34 45/132/33
f 58/133/1 57/134/1 56/135/1 55/136/1
f 52/137/3 54/138/3 50/139/3 48/140/3
f 60/141/35 62/142/35 49/143/35 47/144/35
f 59/31/5 60/145/5 47/146/5 53/32/5
f 62/147/2 61/5/2 51/8/2 49/148/2
f 51/8/6 56/149/6 57/150/6 49/148/6
f 49/143/8 57/151/8 58/152/8 47/144/8
f 53/153/7 55/154/7 56/155/7 51/156/7
f 47/146/9 58/157/9 55/158/9 53/32/9
f 73/159/1 65/160/1 63/52/1 72/27/1
f 67/76/5 68/161/5 60/145/5 59/31/5
f 68/162/35 69/163/35 62/142/35 60/141/35
f 71/164/10 70/48/10 63/51/10 65/165/10
f 75/166/3 64/167/3 66/168/3 74/169/3
f 76/170/35 71/171/35 65/172/35 73/173/35
f 74/174/36 66/175/36 71/171/36 76/170/36
f 66/176/37 64/177/37 70/48/37 71/164/37
f 48/178/38 50/179/38 69/163/38 68/162/38
f 52/180/39 48/181/39 68/161/39 67/76/39
f 69/163/35 76/170/35 73/173/35 79/182/35 62/142/35
f 62/183/1 79/184/1 80/26/1 61/25/1
f 54/185/40 52/186/40 67/187/40 78/188/40
f 69/189/41 50/190/41 54/191/41 78/192/41
f 74/193/42 76/194/42 77/195/42 75/196/42
f 64/197/40 75/198/40 77/199/40 70/200/40
f 76/201/3 69/202/3 78/203/3 77/204/3
f 83/205/27 87/206/30 88/207/29 84/208/28
f 79/209/22 84/210/22 81/211/22 80/212/22
f 73/173/43 83/205/27 84/208/28 79/182/44
f 80/213/45 81/214/19 82/215/18 72/216/46
f 72/217/46 82/218/18 83/219/27 73/220/43
f 88/221/29 87/222/30 86/223/21 85/224/20
f 81/214/19 85/225/20 86/226/21 82/215/18
f 81/214/19 90/227/34 92/228/33 85/225/20
f 82/218/18 86/229/21 87/230/30 83/219/27
f 85/224/20 92/231/33 91/232/31 88/221/29
f 84/233/28 89/234/32 90/235/34 81/236/19
f 88/207/29 91/237/31 89/238/32 84/208/28
f 53/239/1 51/240/1 5/241/1 7/242/1
