# Blender 4.0.1
# www.blender.org
mtllib cuadro.mtl
o Painting_03_Paintings_0
v -0.461624 -0.006734 0.474121
v -0.461624 -0.006734 -0.477568
v -0.461624 -0.065761 -0.477568
v -0.461624 -0.065761 0.474121
v -0.461624 -0.065761 0.474121
v -0.461624 -0.065761 -0.477568
v 0.479104 -0.065761 -0.477568
v 0.479104 -0.065761 0.474121
v 0.479104 -0.065761 0.474121
v 0.479104 -0.065761 -0.477568
v 0.479104 -0.006734 -0.477568
v 0.479104 -0.006734 0.474121
v 0.479104 -0.006734 0.474121
v 0.479104 -0.006734 -0.477568
v -0.461624 -0.006734 -0.477568
v -0.461624 -0.006734 0.474121
v -0.461624 -0.065761 0.474121
v 0.479104 -0.065761 0.474121
v 0.479104 -0.006734 0.474121
v -0.461624 -0.006734 0.474121
v 0.479104 -0.065761 -0.477568
v -0.461624 -0.065761 -0.477568
v -0.461624 -0.006734 -0.477568
v 0.479104 -0.006734 -0.477568
vn -1.0000 -0.0000 -0.0000
vn -0.0000 -1.0000 -0.0000
vn 1.0000 -0.0000 -0.0000
vn -0.0000 1.0000 -0.0000
vn -0.0000 -0.0000 1.0000
vn -0.0000 -0.0000 -1.0000
vt 0.242766 0.380656
vt 0.242766 0.344382
vt 0.245186 0.344382
vt 0.245186 0.380656
vt 0.211815 0.380656
vt 0.211815 0.344383
vt 0.250382 0.344383
vt 0.250382 0.380656
vt 0.245186 0.380656
vt 0.245186 0.344383
vt 0.242766 0.344383
vt 0.242766 0.380656
vt 0.347155 0.657974
vt 0.347155 0.335800
vt 0.004606 0.335800
vt 0.004606 0.657974
vt 0.211815 0.349730
vt 0.250382 0.349730
vt 0.250382 0.351980
vt 0.211815 0.351980
s 0
usemtl Chest_drawers_01_91
f 1/1/1 2/2/1 3/3/1
f 1/1/1 3/3/1 4/4/1
f 5/5/2 6/6/2 7/7/2
f 5/5/2 7/7/2 8/8/2
f 9/9/3 10/10/3 11/11/3
f 9/9/3 11/11/3 12/12/3
f 13/13/4 14/14/4 15/15/4
f 13/13/4 15/15/4 16/16/4
f 17/17/5 18/18/5 19/19/5
f 17/17/5 19/19/5 20/20/5
f 21/18/6 22/17/6 23/20/6
f 21/18/6 23/20/6 24/19/6
