# Blender 4.0.1
# www.blender.org
mtllib desk.mtl
o Desk
v 1.205020 0.736154 -1.253863
v 1.205020 0.736154 -1.471113
v 1.205020 -0.444709 -1.253863
v 1.205020 -0.444709 -1.471113
v 1.028319 -0.444709 -1.253863
v 1.028319 0.736154 -1.253863
v 1.205020 0.568160 -1.253863
v 1.205020 -0.276713 -1.253863
v 1.028319 -0.276713 -1.253863
v 1.028319 0.568160 -1.253863
v 1.187350 -0.293513 -0.027265
v 1.187350 -0.427909 -0.027265
v 1.045989 0.719354 -0.027265
v 1.187350 0.719354 -0.027265
v 1.045989 -0.427909 -0.027265
v 1.045989 0.584959 -0.027265
v 1.187350 0.584959 -0.027265
v 1.045989 -0.293513 -0.027265
v 1.034209 0.730554 -0.729275
v 1.040099 0.724954 -0.551853
v 1.193240 0.724954 -0.551853
v 1.199130 0.730554 -0.729275
v 1.199130 0.573760 -0.729275
v 1.193240 0.579360 -0.551853
v 1.040099 0.579359 -0.551853
v 1.034209 0.573760 -0.729275
v 1.199130 -0.439109 -0.729275
v 1.193240 -0.433509 -0.551853
v 1.040099 -0.433509 -0.551853
v 1.034209 -0.439109 -0.729275
v 1.040099 -0.287913 -0.551853
v 1.034209 -0.282313 -0.729275
v 1.199130 -0.282313 -0.729275
v 1.193240 -0.287913 -0.551853
v 1.199130 0.573760 -0.729275
v 1.193240 0.579360 -0.551853
v 1.040099 -0.433509 -0.551853
v 1.034209 -0.439109 -0.729275
v 1.199130 -0.282313 -0.729275
v 1.193240 -0.287913 -0.551853
v -1.205020 0.736154 -1.253863
v -1.205020 0.736154 -1.471113
v -1.205020 -0.444709 -1.253863
v -1.205020 -0.444708 -1.471113
v -1.028318 -0.444709 -1.253863
v -1.028318 0.736154 -1.253863
v -1.205020 -0.276713 -1.253863
v -1.205020 0.568160 -1.253863
v -1.028318 -0.276713 -1.253863
v -1.028318 0.568160 -1.253863
v -1.187349 0.584959 -0.027265
v -1.187349 0.719354 -0.027265
v -1.045988 -0.427909 -0.027265
v -1.187349 -0.427909 -0.027265
v -1.045988 0.719354 -0.027265
v -1.045988 0.584959 -0.027265
v -1.187349 -0.293513 -0.027265
v -1.045988 -0.293513 -0.027265
v -1.034208 0.573760 -0.729275
v -1.040098 0.579360 -0.551853
v -1.193239 0.579359 -0.551853
v -1.199129 0.573760 -0.729275
v -1.034208 0.730554 -0.729275
v -1.040098 0.724954 -0.551853
v -1.193239 0.724954 -0.551853
v -1.199129 0.730554 -0.729275
v -1.034208 -0.282313 -0.729275
v -1.040098 -0.287913 -0.551853
v -1.040098 -0.433509 -0.551853
v -1.034208 -0.439109 -0.729275
v -1.193239 -0.433509 -0.551853
v -1.199129 -0.439109 -0.729275
v -1.193239 -0.287913 -0.551853
v -1.199129 -0.282313 -0.729275
v -1.034208 -0.439109 -0.729275
v -1.040098 -0.433509 -0.551853
v -1.193239 0.579359 -0.551853
v -1.199129 0.573760 -0.729275
v -1.040098 -0.433509 -0.551853
v -1.034208 -0.439109 -0.729275
v -1.193239 -0.287913 -0.551853
v -1.199129 -0.282313 -0.729275
v 1.034209 -0.439109 -0.729275
v 1.040099 -0.433509 -0.551853
v 1.205020 -0.272865 -1.471113
v -1.205020 -0.272865 -1.471113
v -1.205020 -0.444708 -2.062408
v 1.205020 -0.444709 -2.062408
v -1.205020 -0.272865 -2.062408
v 1.205020 -0.272865 -2.062408
v -0.982823 -0.428865 -2.221227
v 0.982823 -0.428865 -2.221227
v -0.982823 -0.288708 -2.221227
v 0.982823 -0.288708 -2.221227
v 1.028319 -0.444709 -1.253863
v -1.028318 -0.444709 -1.253863
v -1.034208 -0.439109 -0.729275
v 1.034209 -0.439109 -0.729275
vn -0.0000 -0.9999 0.0107
vn -0.0000 1.0000 -0.0000
vn -0.0000 1.0000 0.0053
vn -0.0000 1.0000 0.0092
vn 0.0001 1.0000 0.0092
vn -0.0000 0.9999 0.0107
vn -0.0000 -0.0000 -1.0000
vn -0.0000 -0.0000 1.0000
vn 1.0000 -0.0000 -0.0000
vn 1.0000 -0.0000 0.0056
vn 1.0000 -0.0000 0.0096
vn 1.0000 -0.0001 0.0096
vn -0.9999 -0.0000 0.0112
vn 0.9999 -0.0000 0.0112
vn 0.9994 -0.0000 0.0332
vn -0.9994 -0.0000 0.0332
vn -0.0000 0.9995 0.0315
vn -0.0000 -0.9995 0.0315
vn -0.0000 -1.0000 0.0092
vn -0.0000 -1.0000 0.0053
vn -0.9994 -0.0000 -0.0332
vn -0.0001 -1.0000 0.0092
vn -0.0000 -1.0000 -0.0000
vn -1.0000 -0.0000 -0.0000
vn -1.0000 -0.0000 0.0056
vn -1.0000 -0.0000 0.0096
vn -1.0000 0.0001 0.0096
vn 0.9994 -0.0000 -0.0332
vn -0.0000 0.9995 -0.0315
vn -0.0000 0.9951 -0.0993
vn -0.5815 -0.0000 -0.8135
vn 0.5815 -0.0000 -0.8135
vn -0.0000 -0.9951 -0.0993
vn -0.0000 0.9999 -0.0107
vt 0.626570 0.647471
vt 0.626570 0.690224
vt 0.514533 0.688580
vt 0.514533 0.649115
vt 0.795844 0.795864
vt 0.207826 0.795864
vt 0.207826 0.742857
vt 0.250939 0.742857
vt 0.752732 0.742857
vt 0.795844 0.742857
vt 0.628591 0.646783
vt 0.628591 0.689537
vt 0.516554 0.687892
vt 0.516554 0.648428
vt 0.516342 0.416825
vt 0.516342 0.078786
vt 0.657870 0.078786
vt 0.657869 0.416825
vt 0.287325 0.807571
vt 0.313183 0.807571
vt 0.313183 0.928913
vt 0.287325 0.928913
vt 0.652487 0.796407
vt 0.609264 0.796407
vt 0.355474 0.796407
vt 0.355474 0.742779
vt 0.397728 0.742779
vt 0.610232 0.742779
vt 0.652487 0.742779
vt 0.730582 0.653652
vt 0.730582 0.690341
vt 0.695041 0.690341
vt 0.695041 0.653652
vt 0.647004 0.653652
vt 0.647004 0.690341
vt 0.611463 0.690341
vt 0.611463 0.653652
vt 0.626570 0.649114
vt 0.626570 0.691867
vt 0.514533 0.690223
vt 0.514533 0.650758
vt 0.628633 0.649882
vt 0.628633 0.690529
vt 0.516595 0.688966
vt 0.516595 0.651446
vt 0.628592 0.648858
vt 0.628592 0.689505
vt 0.516554 0.687942
vt 0.516554 0.650422
vt 0.628592 0.650859
vt 0.628592 0.691505
vt 0.516554 0.689942
vt 0.516554 0.652422
vt 0.630694 0.649788
vt 0.630694 0.692542
vt 0.518657 0.690898
vt 0.518657 0.651433
vt 0.628592 0.651208
vt 0.628592 0.691854
vt 0.516554 0.690291
vt 0.516554 0.652771
vt 0.852669 0.648081
vt 0.852669 0.694981
vt 0.740630 0.693418
vt 0.740630 0.649645
vt 0.852669 0.647732
vt 0.852669 0.694632
vt 0.740630 0.693069
vt 0.740630 0.649295
vt 0.852666 0.643495
vt 0.852666 0.692825
vt 0.740629 0.691181
vt 0.740629 0.645139
vt 0.850645 0.644182
vt 0.850645 0.693513
vt 0.738608 0.691868
vt 0.738608 0.645826
vt 0.854769 0.646500
vt 0.854769 0.695831
vt 0.742731 0.694186
vt 0.742731 0.648144
vt 0.852669 0.645732
vt 0.852669 0.692632
vt 0.740630 0.691068
vt 0.740630 0.647295
vt 0.852710 0.646755
vt 0.852710 0.693656
vt 0.740671 0.692093
vt 0.740671 0.648319
vt 0.850645 0.645825
vt 0.850645 0.695156
vt 0.738608 0.693512
vt 0.738608 0.647470
vt 0.342316 0.733286
vt 0.644175 0.733286
vt 0.642226 0.795073
vt 0.344265 0.795073
vt 0.644175 0.734465
vt 0.642226 0.796251
vt 0.344265 0.796251
vt 0.342316 0.734465
vt 0.251331 0.742399
vt 0.753124 0.742399
vt 0.796237 0.742399
vt 0.796237 0.795405
vt 0.208218 0.795405
vt 0.208218 0.742399
vt 0.628633 0.651832
vt 0.628633 0.692479
vt 0.516595 0.690915
vt 0.516595 0.653395
vt 0.140380 0.807571
vt 0.166238 0.807571
vt 0.166238 0.928913
vt 0.140380 0.928913
vt 0.628632 0.651082
vt 0.628632 0.693836
vt 0.516595 0.692191
vt 0.516595 0.652726
vt 0.650432 0.796676
vt 0.394095 0.796676
vt 0.350439 0.796676
vt 0.350439 0.742510
vt 0.393117 0.742510
vt 0.607754 0.742510
vt 0.650432 0.742510
vt 0.688793 0.653652
vt 0.688793 0.690342
vt 0.653253 0.690342
vt 0.653253 0.653652
vt 0.605214 0.653652
vt 0.605214 0.690342
vt 0.569673 0.690342
vt 0.569673 0.653652
vt 0.628632 0.649195
vt 0.628632 0.691948
vt 0.516595 0.690304
vt 0.516595 0.650839
vt 0.628592 0.651382
vt 0.628592 0.692029
vt 0.516554 0.690466
vt 0.516554 0.652946
vt 0.628904 0.650859
vt 0.628904 0.691505
vt 0.516866 0.689942
vt 0.516866 0.652422
vt 0.626530 0.649033
vt 0.626530 0.689680
vt 0.514492 0.688116
vt 0.514492 0.650596
vt 0.628591 0.650826
vt 0.628591 0.693579
vt 0.516554 0.691935
vt 0.516554 0.652470
vt 0.628632 0.649277
vt 0.628632 0.692030
vt 0.516595 0.690386
vt 0.516595 0.650921
vt 0.852666 0.647537
vt 0.852666 0.696868
vt 0.740629 0.695224
vt 0.740629 0.649181
vt 0.850607 0.645907
vt 0.850607 0.692807
vt 0.738569 0.691243
vt 0.738569 0.647470
vt 0.852980 0.647732
vt 0.852980 0.694632
vt 0.740942 0.693069
vt 0.740942 0.649295
vt 0.852707 0.647794
vt 0.852707 0.697125
vt 0.740669 0.695480
vt 0.740669 0.649438
vt 0.852707 0.645988
vt 0.852707 0.695319
vt 0.740669 0.693675
vt 0.740669 0.647632
vt 0.852669 0.648256
vt 0.852669 0.695156
vt 0.740631 0.693593
vt 0.740631 0.649819
vt 0.852707 0.645906
vt 0.852707 0.695237
vt 0.740669 0.693593
vt 0.740669 0.647551
vt 0.852710 0.648705
vt 0.852710 0.695606
vt 0.740671 0.694042
vt 0.740671 0.650268
vt 0.342316 0.733658
vt 0.644175 0.733658
vt 0.642226 0.795444
vt 0.344265 0.795444
vt 0.138332 0.794606
vt 0.140352 0.733718
vt 0.849846 0.733718
vt 0.851866 0.794606
vt 0.643400 0.734029
vt 0.641451 0.795816
vt 0.343490 0.795816
vt 0.341541 0.734029
vt 0.139439 0.734011
vt 0.852974 0.734011
vt 0.850953 0.794899
vt 0.141460 0.794899
vt 0.404455 0.807469
vt 0.404455 0.911790
vt 0.404455 0.932533
vt 0.108167 0.932533
vt 0.108167 0.911790
vt 0.108167 0.807469
vt 0.108167 0.786726
vt 0.404455 0.786726
vt 0.902891 0.732301
vt 0.466608 0.732301
vt 0.466608 0.601739
vt 0.902891 0.601739
vt 0.808385 0.788843
vt 0.136435 0.788843
vt 0.198387 0.744342
vt 0.746434 0.744343
vt 0.680183 0.788344
vt 0.680183 0.864915
vt 0.416711 0.864914
vt 0.416711 0.788344
vt 0.774931 0.937333
vt 0.166789 0.937334
vt 0.166789 0.788128
vt 0.774931 0.788128
vt 0.295013 0.942172
vt 0.295013 0.865602
vt 0.558485 0.865602
vt 0.558485 0.942172
vt 0.492238 0.416825
vt 0.492238 0.078786
vt 0.680183 0.872661
vt 0.680183 0.935113
vt 0.295013 0.857855
vt 0.295013 0.795403
vt 0.222858 0.747853
vt 0.718862 0.747853
vt 0.764264 0.945209
vt 0.162904 0.945209
vt 0.164617 0.792685
vt 0.762552 0.792685
s 1
usemtl SideTable
f 25/1/1 24/2/1 17/3/1 16/4/1
f 2/5/2 42/6/2 41/7/3 46/8/4 6/9/5 1/10/3
f 21/11/6 20/12/6 13/13/6 14/14/6
f 85/15/7 86/16/7 42/17/7 2/18/7
f 9/19/8 8/20/8 7/21/8 10/22/8
f 4/23/9 85/24/9 2/25/9 1/26/10 7/27/11 8/28/12 3/29/10
f 16/30/8 17/31/8 14/32/8 13/33/8
f 15/34/8 12/35/8 11/36/8 18/37/8
f 29/38/1 28/39/1 12/40/1 15/41/1
f 31/42/13 29/43/13 15/44/13 18/45/13
f 28/46/14 34/47/14 11/48/14 12/49/14
f 20/50/13 25/51/13 16/52/13 13/53/13
f 34/54/6 31/55/6 18/56/6 11/57/6
f 24/58/14 21/59/14 14/60/14 17/61/14
f 7/62/11 1/63/10 22/64/14 23/65/14
f 23/65/15 22/64/15 21/59/15 24/58/15
f 6/66/13 10/67/13 26/68/13 19/69/13
f 19/69/16 26/68/16 25/51/16 20/50/16
f 1/70/3 6/71/5 19/72/6 22/73/6
f 22/73/17 19/72/17 20/12/17 21/11/17
f 10/74/1 7/75/1 23/76/1 26/77/1
f 26/77/18 23/76/18 24/2/18 25/1/18
f 8/78/6 9/79/6 32/80/6 33/81/6
f 33/81/17 32/80/17 31/55/17 34/54/17
f 3/82/10 8/83/12 33/84/14 27/85/14
f 27/85/15 33/84/15 34/47/15 28/46/15
f 9/86/13 5/87/13 30/88/13 32/89/13
f 32/89/16 30/88/16 29/43/16 31/42/16
f 5/90/19 3/91/20 27/92/1 30/93/1
f 30/93/18 27/92/18 28/39/18 29/38/18
f 34/94/21 24/95/21 23/96/21 33/97/21
f 40/98/15 39/99/15 35/100/15 36/101/15
f 5/102/19 45/103/22 43/104/20 44/105/23 4/106/23 3/107/20
f 69/108/14 68/109/14 58/110/14 53/111/14
f 47/112/8 49/113/8 50/114/8 48/115/8
f 61/116/1 60/117/1 56/118/1 51/119/1
f 42/120/24 86/121/24 44/122/24 43/123/25 47/124/26 48/125/27 41/126/25
f 51/127/8 56/128/8 55/129/8 52/130/8
f 54/131/8 53/132/8 58/133/8 57/134/8
f 71/135/1 69/136/1 53/137/1 54/138/1
f 73/139/13 71/140/13 54/141/13 57/142/13
f 60/143/14 64/144/14 55/145/14 56/146/14
f 65/147/13 61/148/13 51/149/13 52/150/13
f 64/151/6 65/152/6 52/153/6 55/154/6
f 68/155/6 73/156/6 57/157/6 58/158/6
f 46/159/4 41/160/3 66/161/6 63/162/6
f 63/162/17 66/161/17 65/152/17 64/151/17
f 41/163/25 48/164/27 62/165/13 66/166/13
f 66/166/16 62/165/16 61/148/16 65/147/16
f 50/167/14 46/168/14 63/169/14 59/170/14
f 59/170/15 63/169/15 64/144/15 60/143/15
f 48/171/1 50/172/1 59/173/1 62/174/1
f 62/174/18 59/173/18 60/117/18 61/116/18
f 49/175/6 47/176/6 74/177/6 67/178/6
f 67/178/17 74/177/17 73/156/17 68/155/17
f 47/179/26 43/180/25 72/181/13 74/182/13
f 74/182/16 72/181/16 71/140/16 73/139/16
f 43/183/20 45/184/22 70/185/1 72/186/1
f 72/186/18 70/185/18 69/136/18 71/135/18
f 45/187/14 49/188/14 67/189/14 70/190/14
f 70/190/15 67/189/15 68/109/15 69/108/15
f 61/191/28 73/192/28 74/193/28 62/194/28
f 76/195/18 75/196/18 83/197/18 84/198/18
f 77/199/16 78/200/16 82/201/16 81/202/16
f 69/203/29 29/204/29 30/205/29 70/206/29
f 9/207/8 10/208/8 6/209/8 46/210/8 50/211/8 49/212/8 45/213/8 5/214/8
f 86/215/2 85/216/2 90/217/2 89/218/2
f 89/219/30 90/220/30 94/221/30 93/222/30
f 85/223/9 4/224/9 88/225/9 90/226/9
f 4/227/23 44/228/23 87/229/23 88/230/23
f 44/231/24 86/232/24 89/233/24 87/234/24
f 92/235/7 91/236/7 93/16/7 94/15/7
f 87/234/31 89/233/31 93/237/31 91/238/31
f 90/226/32 88/225/32 92/239/32 94/240/32
f 88/230/33 87/229/33 91/241/33 92/242/33
f 83/243/1 75/244/1 45/245/1 5/246/1
f 98/243/34 95/246/34 96/245/34 97/244/34
