# Blender 4.0.1
# www.blender.org
mtllib dresser.mtl
o Dresser
v -1.414680 0.590432 -0.236948
v -1.414680 0.590432 -1.718365
v -1.414680 -0.590431 -0.236948
v -1.414680 -0.590430 -1.718365
v 1.414679 0.590432 -0.236948
v 1.414679 0.590432 -1.718365
v 1.414679 -0.590431 -0.236948
v 1.414679 -0.590431 -1.718365
v 1.202076 -0.590431 -0.236948
v -1.202075 -0.590431 -0.236948
v -1.202075 -0.590430 -1.718365
v 1.202076 -0.590431 -1.718365
v -1.202075 0.590432 -0.236948
v 1.202076 0.590432 -0.236948
v 1.202076 0.590432 -1.718365
v -1.202075 0.590432 -1.718365
v -1.414680 -0.422435 -0.236948
v -1.414680 0.422438 -0.236948
v -1.414680 0.422438 -1.718365
v -1.414680 -0.422435 -1.718365
v 1.414679 0.422438 -0.236948
v 1.414679 -0.422435 -0.236948
v 1.414679 -0.422435 -1.718365
v 1.414679 0.422438 -1.718365
v 1.202076 -0.422435 -1.718365
v 1.202076 0.422438 -1.718365
v -1.202075 -0.422435 -1.718365
v -1.202075 0.422438 -1.718365
v -1.202075 -0.422435 -0.236948
v -1.202075 0.422438 -0.236948
v 1.202076 -0.422435 -0.236948
v 1.202076 0.422438 -0.236948
v 1.219189 0.584832 -0.006275
v 1.400566 0.584832 -0.006275
v 1.400567 0.428038 -0.006275
v 1.219189 0.428038 -0.006275
v -1.219188 0.428038 -0.006275
v -1.400566 0.428038 -0.006275
v -1.219188 0.584832 -0.006275
v -1.400566 0.584832 -0.006275
v -1.219188 -0.428035 -0.006275
v -1.219189 -0.584831 -0.006275
v -1.400566 -0.584831 -0.006275
v -1.400566 -0.428035 -0.006275
v 1.400567 -0.584831 -0.006275
v 1.219189 -0.584831 -0.006275
v 1.219189 -0.428035 -0.006275
v 1.400567 -0.428035 -0.006275
v 0.000000 -0.590431 -0.236948
v 0.000000 -0.590430 -1.718365
v 0.000001 0.590432 -0.236948
v 0.000001 0.590432 -1.718365
v 0.000000 -0.422435 -0.236948
v 0.000001 0.422438 -0.236948
v 0.000000 -0.422435 -1.718365
v 0.000001 0.422438 -1.718365
v -1.414680 0.590432 -1.460141
v -1.414680 -0.590430 -1.460142
v 1.414679 -0.590431 -1.460142
v 1.414679 0.590432 -1.460141
v 1.202076 0.590432 -1.460141
v -1.202075 0.590432 -1.460141
v -1.202075 -0.590430 -1.460142
v 1.202076 -0.590431 -1.460142
v 1.414679 -0.422435 -1.460142
v 1.414679 0.422438 -1.460141
v -1.414680 0.422438 -1.460141
v -1.414680 -0.422435 -1.460142
v 0.000000 -0.590431 -1.460142
v 0.000001 0.590432 -1.460141
v -1.414680 -0.590431 -0.484286
v 1.414679 -0.590431 -0.484286
v 1.414679 0.590432 -0.484286
v 1.202076 0.590432 -0.484286
v -1.202075 0.590432 -0.484286
v -1.202075 -0.590431 -0.484286
v 1.202076 -0.590431 -0.484286
v 1.414679 -0.422435 -0.484286
v 1.414679 0.422438 -0.484286
v -1.414680 0.422438 -0.484286
v -1.414680 -0.422435 -0.484286
v 0.000000 -0.590431 -0.484286
v 0.000001 0.590432 -0.484286
v -1.414680 0.590432 -0.484286
vn -1.0000 -0.0000 -0.0000
vn -0.0000 -1.0000 -0.0000
vn 1.0000 -0.0000 -0.0000
vn -0.0000 1.0000 -0.0000
vn -0.0000 -0.0000 -1.0000
vn -0.0000 -0.0000 1.0000
vn 0.9981 -0.0000 0.0611
vn -0.9973 -0.0000 0.0740
vn -0.0000 0.9997 0.0243
vn -0.0000 -0.9997 0.0243
vn -0.9981 -0.0000 0.0611
vn 0.9973 -0.0000 0.0740
vt 0.714107 0.801933
vt 0.842319 0.801933
vt 0.842319 0.941394
vt 0.714107 0.941394
vt 0.065622 0.366598
vt 0.065622 0.414239
vt 0.038388 0.414239
vt 0.038388 0.366598
vt 0.065622 0.095858
vt 0.065622 0.143500
vt 0.038388 0.143500
vt 0.038388 0.095858
vt 0.065622 0.255049
vt 0.038388 0.255049
vt 0.226781 0.928913
vt 0.287325 0.928913
vt 0.287325 0.953041
vt 0.226781 0.953041
vt 0.482379 0.814509
vt 0.482379 0.741628
vt 0.821657 0.741628
vt 0.821657 0.814509
vt 0.323126 0.821328
vt 0.323126 0.795232
vt 0.079878 0.795232
vt 0.079878 0.821328
vt 0.226781 0.783443
vt 0.287325 0.783443
vt 0.287325 0.807571
vt 0.226781 0.807571
vt 0.140380 0.807571
vt 0.166238 0.807571
vt 0.166238 0.928913
vt 0.140380 0.928913
vt 0.229819 0.255049
vt 0.229819 0.366598
vt 0.202585 0.366598
vt 0.202585 0.255049
vt 0.229818 0.095858
vt 0.229819 0.143500
vt 0.202585 0.143500
vt 0.202585 0.095858
vt 0.229819 0.414239
vt 0.202585 0.414239
vt 0.313183 0.807571
vt 0.313183 0.928913
vt 0.548091 0.769713
vt 0.475800 0.769713
vt 0.475800 0.935712
vt 0.548091 0.935712
vt 0.820059 0.768506
vt 0.891230 0.768506
vt 0.891230 0.935369
vt 0.820059 0.935369
vt 0.653833 0.819544
vt 0.653833 0.940039
vt 0.365987 0.936022
vt 0.365987 0.823560
vt 0.649850 0.820638
vt 0.649850 0.941132
vt 0.362004 0.937116
vt 0.362004 0.824654
vt 0.653826 0.807760
vt 0.653826 0.934500
vt 0.365982 0.930275
vt 0.365982 0.811985
vt 0.644651 0.811518
vt 0.644651 0.938257
vt 0.356807 0.934032
vt 0.356807 0.815742
vt 0.653826 0.818146
vt 0.653826 0.944887
vt 0.365982 0.940662
vt 0.365982 0.822370
vt 0.648536 0.813957
vt 0.648536 0.934451
vt 0.360689 0.930434
vt 0.360689 0.817973
vt 0.650652 0.820638
vt 0.650652 0.941133
vt 0.362805 0.937116
vt 0.362805 0.824654
vt 0.649948 0.820796
vt 0.649948 0.947537
vt 0.362104 0.943312
vt 0.362104 0.825020
vt 0.649948 0.816157
vt 0.649948 0.942898
vt 0.362104 0.938673
vt 0.362104 0.820382
vt 0.653834 0.819992
vt 0.653834 0.940487
vt 0.365987 0.936471
vt 0.365987 0.824008
vt 0.653931 0.813956
vt 0.653931 0.940696
vt 0.366087 0.936471
vt 0.366087 0.818181
vt 0.649956 0.823137
vt 0.649956 0.943634
vt 0.362109 0.939617
vt 0.362109 0.827154
vt 0.655246 0.817472
vt 0.655246 0.944212
vt 0.367402 0.939987
vt 0.367402 0.821697
vt 0.740671 0.648319
vt 0.740671 0.692093
vt 0.738608 0.693512
vt 0.740630 0.691068
vt 0.653834 0.813507
vt 0.653834 0.934002
vt 0.365987 0.929986
vt 0.365987 0.817524
vt 0.740631 0.649819
vt 0.740631 0.693593
vt 0.740669 0.693593
vt 0.740671 0.694042
vt 0.649956 0.818129
vt 0.649956 0.938625
vt 0.362109 0.934609
vt 0.362109 0.822146
vt 0.738569 0.647470
vt 0.738569 0.691243
vt 0.740669 0.695480
vt 0.740942 0.693069
vt 0.648634 0.813747
vt 0.648634 0.940487
vt 0.360790 0.936263
vt 0.360790 0.817972
vt 0.740629 0.645139
vt 0.740629 0.691181
vt 0.740630 0.693069
vt 0.738608 0.691868
vt 0.166238 0.783443
vt 0.081981 0.821328
vt 0.081981 0.795232
vt 0.143101 0.814509
vt 0.143101 0.741628
vt 0.166238 0.953041
vt 0.674848 0.101555
vt 0.253201 0.101555
vt 0.253201 0.417080
vt 0.674848 0.417080
vt 0.081981 0.919946
vt 0.323126 0.919946
vt 0.548000 0.768506
vt 0.548000 0.935369
vt 0.229580 0.801933
vt 0.229580 0.941394
vt 0.821286 0.769713
vt 0.821286 0.935712
vt 0.229580 0.801933
vt 0.229580 0.941394
vt 0.079878 0.919946
vt 0.253201 0.100740
vt 0.674848 0.100740
vt 0.106773 0.801933
vt 0.106773 0.941394
vt 0.106773 0.801933
vt 0.106773 0.941394
vt 0.482379 0.742934
vt 0.482379 0.812743
vt 0.143101 0.812743
vt 0.143101 0.742934
vt 0.323126 0.944942
vt 0.079878 0.944942
vt 0.890529 0.769713
vt 0.890529 0.935712
vt 0.475179 0.768506
vt 0.475179 0.935369
vt 0.081981 0.944942
vt 0.821657 0.742934
vt 0.821657 0.812743
s 1
usemtl Drawer
f 68/1/1 20/2/1 4/3/1 58/4/1
f 64/1/2 12/2/2 8/3/2 59/4/2
f 66/1/3 24/2/3 6/3/3 60/4/3
f 62/1/4 16/2/4 2/3/4 57/4/4
f 28/5/5 19/6/5 2/7/5 16/8/5
f 24/9/5 26/10/5 15/11/5 6/12/5
f 56/13/5 28/5/5 16/8/5 52/14/5
f 54/15/6 32/16/6 14/17/6 51/18/6
f 60/1/4 6/2/4 15/3/4 61/4/4
f 70/19/4 52/20/4 16/21/4 62/22/4
f 58/1/2 4/2/2 11/3/2 63/4/2
f 69/23/2 50/24/2 12/25/2 64/26/2
f 49/27/6 9/28/6 31/29/6 53/30/6
f 53/30/6 31/29/6 32/16/6 54/15/6
f 17/31/6 29/32/6 30/33/6 18/34/6
f 50/35/5 11/36/5 27/37/5 55/38/5
f 55/38/5 27/37/5 28/5/5 56/13/5
f 8/39/5 12/40/5 25/41/5 23/42/5
f 23/42/5 25/41/5 26/10/5 24/9/5
f 11/36/5 4/43/5 20/44/5 27/37/5
f 27/37/5 20/44/5 19/6/5 28/5/5
f 31/29/6 22/45/6 21/46/6 32/16/6
f 59/1/3 8/2/3 23/3/3 65/4/3
f 65/47/3 23/48/3 24/49/3 66/50/3
f 57/1/1 2/2/1 19/3/1 67/4/1
f 67/51/1 19/52/1 20/53/1 68/54/1
f 21/55/7 5/56/7 34/57/7 35/58/7
f 14/59/8 32/60/8 36/61/8 33/62/8
f 5/63/9 14/64/9 33/65/9 34/66/9
f 32/67/10 21/68/10 35/69/10 36/70/10
f 13/71/9 1/72/9 40/73/9 39/74/9
f 1/75/11 18/76/11 38/77/11 40/78/11
f 30/79/12 13/80/12 39/81/12 37/82/12
f 18/83/10 30/84/10 37/85/10 38/86/10
f 29/87/9 17/88/9 44/89/9 41/90/9
f 17/91/11 3/92/11 43/93/11 44/94/11
f 3/95/10 10/96/10 42/97/10 43/98/10
f 10/99/12 29/100/12 41/101/12 42/102/12
f 22/103/9 31/104/9 47/105/9 48/106/9
f 47/107/6 46/108/6 45/109/6 48/110/6
f 7/111/7 22/112/7 48/113/7 45/114/7
f 44/115/6 43/116/6 42/117/6 41/118/6
f 31/119/8 9/120/8 46/121/8 47/122/8
f 40/123/6 38/124/6 37/125/6 39/126/6
f 9/127/10 7/128/10 45/129/10 46/130/10
f 34/131/6 33/132/6 36/133/6 35/134/6
f 25/41/5 55/38/5 56/13/5 26/10/5
f 12/40/5 50/35/5 55/38/5 25/41/5
f 29/32/6 53/30/6 54/15/6 30/33/6
f 10/135/6 49/27/6 53/30/6 29/32/6
f 63/136/2 11/137/2 50/24/2 69/23/2
f 61/138/4 15/139/4 52/20/4 70/19/4
f 30/33/6 54/15/6 51/18/6 13/140/6
f 26/10/5 56/13/5 52/14/5 15/11/5
f 74/141/4 61/142/4 70/143/4 83/144/4
f 76/145/2 63/136/2 69/23/2 82/146/2
f 80/147/1 67/51/1 68/54/1 81/148/1
f 84/149/1 57/1/1 67/4/1 80/150/1
f 78/151/3 65/47/3 66/50/3 79/152/3
f 72/153/3 59/1/3 65/4/3 78/154/3
f 82/146/2 69/23/2 64/26/2 77/155/2
f 71/153/2 58/1/2 63/4/2 76/154/2
f 83/144/4 70/143/4 62/156/4 75/157/4
f 73/153/4 60/1/4 61/4/4 74/154/4
f 75/153/4 62/1/4 57/4/4 84/154/4
f 79/153/3 66/1/3 60/4/3 73/154/3
f 77/153/2 64/1/2 59/4/2 72/154/2
f 81/149/1 68/1/1 58/4/1 71/150/1
f 17/158/1 81/149/1 71/150/1 3/159/1
f 9/160/2 77/153/2 72/154/2 7/161/2
f 21/160/3 79/153/3 73/154/3 5/161/3
f 13/160/4 75/153/4 84/154/4 1/161/4
f 5/160/4 73/153/4 74/154/4 14/161/4
f 51/162/4 83/163/4 75/164/4 13/165/4
f 3/160/2 71/153/2 76/154/2 10/161/2
f 49/166/2 82/146/2 77/155/2 9/167/2
f 7/160/3 72/153/3 78/154/3 22/161/3
f 22/168/3 78/151/3 79/152/3 21/169/3
f 1/158/1 84/149/1 80/150/1 18/159/1
f 18/170/1 80/147/1 81/148/1 17/171/1
f 10/172/2 76/145/2 82/146/2 49/166/2
f 14/173/4 74/174/4 83/163/4 51/162/4
