# Blender 4.0.1
# www.blender.org
mtllib historia.mtl
o Cube
v 0.122223 1.437037 2.133729
v 0.122223 1.437037 -2.133729
v 0.122223 -1.437037 2.133729
v 0.122223 -1.437037 -2.133729
v 0.019968 1.437037 2.133729
v 0.019968 1.437037 -2.133729
v 0.019968 -1.437037 2.133729
v 0.019968 -1.437037 -2.133729
vn -0.0000 -0.0000 1.0000
vn -0.0000 -1.0000 -0.0000
vn -1.0000 -0.0000 -0.0000
vn -0.0000 -0.0000 -1.0000
vn 1.0000 -0.0000 -0.0000
vn -0.0000 1.0000 -0.0000
vt 0.031637 0.993534
vt 0.905319 0.993534
vt 0.905319 0.976655
vt 0.031637 0.976655
vt 0.993447 0.077570
vt 0.963728 0.077570
vt 0.963728 0.984812
vt 0.993447 0.984812
vt 0.720698 0.063116
vt 0.837228 0.063116
vt 0.837228 0.179646
vt 0.720698 0.179646
vt 0.915578 0.023345
vt 0.080925 0.023345
vt 0.080925 0.010658
vt 0.915578 0.010658
vt 0.995638 0.004677
vt 0.993595 0.996065
vt -0.000757 0.991991
vt 0.001286 0.000602
vt 0.010456 0.955544
vt 0.037487 0.955544
vt 0.037487 0.120170
vt 0.010456 0.120170
s 0
usemtl Material
f 1/1/1 5/2/1 7/3/1 3/4/1
f 4/5/2 3/6/2 7/7/2 8/8/2
f 8/9/3 7/10/3 5/11/3 6/12/3
f 6/13/4 2/14/4 4/15/4 8/16/4
f 2/17/5 1/18/5 3/19/5 4/20/5
f 6/21/6 5/22/6 1/23/6 2/24/6
