# Blender 4.0.1
# www.blender.org
mtllib maleta_1.mtl
o Cube
v -1.727946 0.142361 0.412635
v -1.727946 2.142361 0.412635
v -1.727946 0.142361 -0.412635
v -1.727946 2.142361 -0.412635
v 1.727946 0.142361 0.412635
v 1.727946 2.142361 0.412635
v 1.727946 0.142361 -0.412635
v 1.727946 2.142361 -0.412635
v -0.564810 2.148417 0.039496
v 0.596460 2.143961 0.039496
v -0.564810 2.148417 -0.123897
v 0.596460 2.143961 -0.123897
v -0.356845 2.148417 0.039496
v 0.189999 2.259275 0.039496
v 0.306143 2.143961 0.039496
v 0.306143 2.143961 -0.123897
v 0.189998 2.259275 -0.123897
v -0.356845 2.148417 -0.123897
v -0.202841 2.219059 0.039496
v -0.202841 2.219059 -0.123897
v -1.351162 2.142361 -0.193029
v -1.351162 2.142361 0.013577
v -0.977514 2.142361 0.013577
v -0.973118 2.142361 -0.199622
v 0.941414 2.142361 -0.196723
v 0.945077 2.142361 0.012081
v 1.344367 2.142361 0.019407
v 1.346199 2.142361 -0.200386
v -1.351162 2.171504 -0.193029
v -1.351162 2.171504 0.013577
v -0.977514 2.171504 0.013577
v -0.973118 2.171504 -0.199622
v 0.941414 2.171504 -0.196723
v 0.945077 2.171504 0.012081
v 1.344367 2.171504 0.019407
v 1.346199 2.171504 -0.200386
vn -1.0000 -0.0000 -0.0000
vn -0.0000 -0.0000 -1.0000
vn 1.0000 -0.0000 -0.0000
vn -0.0000 -0.0000 1.0000
vn -0.0000 -1.0000 -0.0000
vn -0.0000 1.0000 -0.0000
vn -0.1018 0.9948 -0.0000
vn 0.7046 0.7096 -0.0000
vn -0.4169 0.9089 -0.0000
vn 1.0000 -0.0000 0.0083
vn -0.9998 -0.0000 0.0175
vn 0.9998 -0.0000 0.0206
vn -0.0090 -0.0000 -1.0000
vn -0.0183 -0.0000 0.9998
vn -0.0174 -0.0000 -0.9998
vt 1.000140 0.609867
vt 0.001395 0.609765
vt 0.001410 0.465008
vt 1.000155 0.465110
vt -0.001321 1.003467
vt -0.001361 0.621700
vt 1.000484 0.621681
vt 1.000524 1.003447
vt 0.001403 0.467446
vt 1.000147 0.467446
vt 1.000147 0.615133
vt 0.001403 0.615133
vt -0.000484 1.003467
vt -0.000524 0.621700
vt 1.001321 0.621680
vt 1.001361 1.003447
vt 0.999713 0.463287
vt 0.002519 0.463140
vt 0.002550 0.247244
vt 0.999745 0.247392
vt 1.000616 0.241486
vt 0.218777 0.179836
vt 0.772931 0.178941
vt 0.890095 0.179991
vt 0.589583 0.112791
vt 0.671416 0.112791
vt 0.671416 0.155517
vt 0.589583 0.155517
vt 0.339165 0.112791
vt 0.398850 0.112791
vt 0.398850 0.155517
vt 0.339165 0.155517
vt 0.488319 0.116387
vt 0.529235 0.116387
vt 0.529235 0.155827
vt 0.488319 0.155827
vt 0.661361 0.116387
vt 0.661361 0.155827
vt 0.446575 0.116387
vt 0.489014 0.116387
vt 0.489014 0.155827
vt 0.446575 0.155827
vt 0.109353 0.177937
vt 0.109328 0.118066
vt 0.217479 0.118055
vt 0.000221 0.002437
vt 0.000321 0.241586
vt 0.889538 0.116299
vt 0.773966 0.118433
vt 1.000516 0.002337
s 0
usemtl Case
f 1/1/1 2/2/1 4/3/1 3/4/1
f 3/5/2 4/6/2 8/7/2 7/8/2
f 7/9/3 8/10/3 6/11/3 5/12/3
f 5/13/4 6/14/4 2/15/4 1/16/4
f 3/17/5 7/18/5 5/19/5 1/20/5
f 8/21/6 24/22/6 25/23/6 28/24/6
f 15/25/6 10/26/6 12/27/6 16/28/6
f 9/29/6 13/30/6 18/31/6 11/32/6
f 19/33/7 14/34/7 17/35/7 20/36/7
f 14/34/8 15/37/8 16/38/8 17/35/8
f 13/39/9 19/40/9 20/41/9 18/42/9
f 29/43/6 30/44/6 31/45/6 32/22/6
f 2/46/6 22/44/6 21/43/6 24/22/6 8/21/6 4/47/6
f 27/48/10 28/24/10 36/24/10 35/48/10
f 22/44/4 23/45/4 31/45/4 30/44/4
f 27/48/6 26/49/6 25/23/6 24/22/6 23/45/6 22/44/6 2/46/6 6/50/6 8/21/6 28/24/6
f 36/24/6 33/23/6 34/49/6 35/48/6
f 25/23/11 26/49/11 34/49/11 33/23/11
f 23/45/12 24/22/12 32/22/12 31/45/12
f 21/43/1 22/44/1 30/44/1 29/43/1
f 28/24/13 25/23/13 33/23/13 36/24/13
f 26/49/14 27/48/14 35/48/14 34/49/14
f 24/22/15 21/43/15 29/43/15 32/22/15
