# Blender 4.0.1
# www.blender.org
mtllib musicsheet.mtl
o MusicSheet_MusicSheet_0
v -0.471841 -0.417715 0.947995
v 0.471841 -0.417715 0.947995
v 0.471841 0.889236 0.938357
v -0.471841 0.889236 0.938357
v -0.471841 -0.417789 0.937995
v -0.471841 0.889162 0.928357
v 0.471841 0.889162 0.928357
v 0.471841 -0.417789 0.937995
v -0.471841 -0.417715 0.947995
v -0.471841 0.889236 0.938357
v -0.471841 0.889162 0.928357
v -0.471841 -0.417789 0.937995
v 0.471841 -0.417715 0.947995
v -0.471841 -0.417715 0.947995
v -0.471841 -0.417789 0.937995
v 0.471841 -0.417789 0.937995
v 0.471841 0.889236 0.938357
v 0.471841 -0.417715 0.947995
v 0.471841 -0.417789 0.937995
v 0.471841 0.889162 0.928357
v -0.471841 0.889236 0.938357
v 0.471841 0.889236 0.938357
v 0.471841 0.889162 0.928357
v -0.471841 0.889162 0.928357
vn -0.0000 0.0074 1.0000
vn -0.0000 -0.0074 -1.0000
vn -1.0000 -0.0000 -0.0000
vn -0.0000 -1.0000 0.0074
vn 1.0000 -0.0000 -0.0000
vn -0.0000 1.0000 -0.0074
vt 0.000000 1.000000
vt 1.000000 1.000000
vt 1.000000 0.000000
vt 0.000000 0.000000
s 0
usemtl MusicSheet
f 1/1/1 2/2/1 3/3/1
f 1/1/1 3/3/1 4/4/1
f 5/1/2 6/4/2 7/3/2
f 5/1/2 7/3/2 8/2/2
f 9/1/3 10/4/3 11/4/3
f 9/1/3 11/4/3 12/1/3
f 13/2/4 14/1/4 15/1/4
f 13/2/4 15/1/4 16/2/4
f 17/3/5 18/2/5 19/2/5
f 17/3/5 19/2/5 20/3/5
f 21/4/6 22/3/6 23/3/6
f 21/4/6 23/3/6 24/4/6
