# Blender 4.0.1
# www.blender.org
mtllib openbook.mtl
o openbook_redBookCover_0
v 0.273314 -0.009718 -0.048676
v 0.275570 0.004305 -0.049178
v 0.274361 -0.008769 -0.041468
v -0.254846 0.005540 0.013768
v -0.257471 -0.008002 0.010343
v -0.253847 0.006747 0.021588
v 0.261690 -0.084359 -0.043672
v 0.259070 -0.097871 -0.047090
v 0.251023 -0.084933 -0.052919
v -0.243319 0.079650 0.008728
v -0.241067 0.093643 0.008228
v -0.234436 0.082652 -0.001842
v -0.257471 -0.008002 0.010343
v -0.254846 0.005540 0.013768
v -0.247907 0.001971 0.002582
v -0.241067 0.093643 0.008228
v -0.243319 0.079650 0.008728
v -0.242390 0.076569 0.016021
v 0.275570 0.004305 -0.049178
v 0.273314 -0.009718 -0.048676
v 0.264588 -0.003741 -0.057288
v 0.259070 -0.097871 -0.047090
v 0.261690 -0.084359 -0.043672
v 0.261345 -0.086997 -0.036786
v 0.275570 0.004305 -0.049178
v 0.331962 0.321305 -0.039648
v 0.330452 0.317735 -0.031851
v 0.274361 -0.008769 -0.041468
v -0.303723 -0.317193 0.034903
v -0.257471 -0.008002 0.010343
v 0.259070 -0.097871 -0.047090
v 0.207913 -0.406351 -0.022011
v -0.179778 0.409900 0.017211
v -0.241067 0.093643 0.008228
v -0.242390 0.076569 0.016021
v -0.177809 0.406043 0.024617
v 0.257160 -0.047681 -0.055677
v 0.251023 -0.084933 -0.052919
v -0.247907 0.001971 0.002582
v -0.241790 0.039149 -0.000247
v 0.207913 -0.406351 -0.022011
v 0.259070 -0.097871 -0.047090
v 0.261345 -0.086997 -0.036786
v 0.207784 -0.404867 -0.009834
v -0.303723 -0.317193 0.034903
v 0.207913 -0.406351 -0.022011
v 0.207784 -0.404867 -0.009834
v -0.300488 -0.316601 0.046629
v -0.257471 -0.008002 0.010343
v -0.303723 -0.317193 0.034903
v -0.300488 -0.316601 0.046629
v -0.253847 0.006747 0.021588
v 0.331962 0.321305 -0.039648
v -0.179778 0.409900 0.017211
v -0.177809 0.406043 0.024617
v 0.330452 0.317735 -0.031851
v -0.241067 0.093643 0.008228
v 0.275570 0.004305 -0.049178
v 0.264588 -0.003741 -0.057288
v -0.234436 0.082652 -0.001842
v 0.259070 -0.097871 -0.047090
v -0.257471 -0.008002 0.010343
v -0.247907 0.001971 0.002582
v 0.251023 -0.084933 -0.052919
v -0.241067 0.093643 0.008228
v -0.179778 0.409900 0.017211
v 0.331962 0.321305 -0.039648
v 0.275570 0.004305 -0.049178
v -0.249663 0.040235 0.010137
v -0.254846 0.005540 0.013768
v -0.253847 0.006747 0.021588
v -0.249434 0.034896 0.017549
v -0.249663 0.040235 0.010137
v -0.234436 0.082652 -0.001842
v -0.241790 0.039149 -0.000247
v 0.266906 -0.049529 -0.047253
v 0.273314 -0.009718 -0.048676
v 0.274361 -0.008769 -0.041468
v 0.266861 -0.053135 -0.039841
v 0.266906 -0.049529 -0.047253
v 0.261690 -0.084359 -0.043672
v 0.251023 -0.084933 -0.052919
v 0.257160 -0.047681 -0.055677
v 0.266906 -0.049529 -0.047253
v 0.257160 -0.047681 -0.055677
v 0.261690 -0.084359 -0.043672
v 0.266906 -0.049529 -0.047253
v 0.266861 -0.053135 -0.039841
v 0.261345 -0.086997 -0.036786
v -0.254846 0.005540 0.013768
v -0.249663 0.040235 0.010137
v -0.241790 0.039149 -0.000247
v -0.247907 0.001971 0.002582
v -0.243319 0.079650 0.008728
v -0.249663 0.040235 0.010137
v -0.249434 0.034896 0.017549
v -0.242390 0.076569 0.016021
v 0.264588 -0.003741 -0.057288
v 0.257160 -0.047681 -0.055677
v -0.241790 0.039149 -0.000247
v -0.234436 0.082652 -0.001842
vn 0.9794 -0.1618 -0.1208
vn -0.9812 0.1650 0.0998
vn 0.6516 0.0648 -0.7558
vn -0.7762 0.1029 -0.6221
vn -0.7757 0.1026 -0.6227
vn -0.7678 0.2930 -0.5697
vn -0.9678 0.1626 0.1920
vn 0.6494 -0.1312 -0.7491
vn 0.6485 -0.1314 -0.7498
vn 0.6490 -0.1313 -0.7494
vn 0.9825 -0.1850 -0.0216
vn 0.9851 -0.1718 -0.0117
vn -0.1207 -0.0606 -0.9908
vn -0.1208 -0.0605 -0.9908
vn -0.9429 0.1761 0.2826
vn -0.1197 -0.0547 -0.9913
vn 0.9863 -0.1652 -0.0033
vn -0.1590 -0.9816 0.1059
vn -0.9701 0.1570 0.1849
vn 0.2003 0.8827 0.4251
vn 0.0378 0.6856 -0.7270
vn 0.0379 0.6856 -0.7269
vn -0.1805 -0.4929 -0.8512
vn -0.1805 -0.4930 -0.8511
vn -0.1021 0.0480 -0.9936
vn -0.9786 0.1645 0.1235
vn -0.9786 0.1645 0.1236
vn -0.7813 0.1068 -0.6150
vn -0.7762 0.1029 -0.6220
vn -0.7760 0.1028 -0.6222
vn 0.9814 -0.1657 -0.0973
vn 0.6394 -0.1667 -0.7506
vn 0.6408 -0.1333 -0.7560
vn 0.9865 -0.1582 -0.0422
vn -0.8142 0.0763 -0.5755
vn -0.8142 0.0763 -0.5756
vn -0.9709 0.1665 0.1719
vn -0.1134 -0.0173 -0.9934
vt 0.488942 0.354457
vt 0.488945 0.279337
vt 0.463220 0.371465
vt 0.458227 0.400846
vt 0.447207 0.400729
vt 0.460682 0.409221
vt 0.547481 0.959492
vt 0.563651 0.954446
vt 0.550629 0.937366
vt 0.449785 0.042856
vt 0.433615 0.038176
vt 0.446636 0.055255
vt 0.563650 0.041196
vt 0.547524 0.045651
vt 0.550318 0.056605
vt 0.539746 0.401707
vt 0.528749 0.401596
vt 0.526268 0.409949
vt 0.433616 0.951426
vt 0.449741 0.956697
vt 0.446948 0.936016
vt 0.488945 0.910115
vt 0.488929 0.835158
vt 0.463113 0.818523
vt 0.492755 0.920378
vt 0.492755 0.296123
vt 0.476244 0.295793
vt 0.474003 0.908339
vt 0.973958 0.044141
vt 0.973958 0.950124
vt 0.535671 0.842964
vt 0.527087 0.842984
vt 0.492946 0.936615
vt 0.550318 0.072036
vt 0.490957 0.071026
vt 0.511410 0.920054
vt 0.511410 0.295779
vt 0.492755 0.307819
vt 0.494900 0.920378
vt 0.531881 0.705228
vt 0.531881 0.404564
vt 0.527505 0.405570
vt 0.527617 0.704221
vt 0.447488 0.842008
vt 0.456070 0.842191
vt 0.419665 0.868404
vt 0.419665 0.191509
vt 0.408619 0.193415
vt 0.408618 0.866497
vt 0.030075 0.042497
vt 0.030075 0.948480
vt 0.498801 0.401586
vt 0.493475 0.409585
vt 0.492716 0.044084
vt 0.446636 0.070686
vt 0.488410 0.563432
vt 0.462984 0.586455
vt 0.493103 0.957937
s 0
usemtl redBookCover
f 1/1/1 2/2/1 3/3/1
f 4/4/2 5/5/2 6/6/2
f 7/7/3 8/8/3 9/9/3
s 1
f 10/10/4 11/11/5 12/12/5
s 0
f 13/13/6 14/14/6 15/15/6
f 16/16/7 17/17/7 18/18/7
s 1
f 19/19/8 20/20/9 21/21/10
s 0
f 22/22/11 23/23/11 24/24/11
s 1
f 25/25/12 26/26/12 27/27/12
f 25/25/12 27/27/12 28/28/12
s 0
f 29/29/13 30/13/13 31/8/13
f 29/29/14 31/8/14 32/30/14
s 1
f 33/31/15 34/16/15 35/18/15
f 33/31/15 35/18/15 36/32/15
f 37/33/16 38/9/16 39/34/16
f 37/33/16 39/34/16 40/35/16
f 41/36/17 42/37/17 43/38/17
f 41/36/17 43/38/17 44/39/17
f 45/40/18 46/41/18 47/42/18
f 45/40/18 47/42/18 48/43/18
f 49/5/19 50/44/19 51/45/19
f 49/5/19 51/45/19 52/6/19
f 53/46/20 54/47/20 55/48/20
f 53/46/20 55/48/20 56/49/20
f 57/11/21 58/19/21 59/21/22
f 57/11/21 59/21/22 60/12/21
f 61/8/23 62/13/23 63/15/24
f 61/8/23 63/15/24 64/9/23
s 0
f 65/11/25 66/50/25 67/51/25
f 65/11/25 67/51/25 68/19/25
s 1
f 69/52/26 70/4/26 71/6/26
f 69/52/26 71/6/26 72/53/27
f 73/54/28 10/10/29 74/55/30
f 73/54/28 74/55/30 75/35/28
f 76/56/31 77/1/31 78/3/31
f 76/56/31 78/3/31 79/57/31
f 80/58/32 81/7/32 82/9/32
f 80/58/32 82/9/32 83/33/32
f 20/20/9 84/58/33 85/33/33
f 20/20/9 85/33/33 21/21/10
f 86/23/34 87/56/34 88/57/34
f 86/23/34 88/57/34 89/24/34
f 90/14/35 91/54/36 92/35/36
f 90/14/35 92/35/36 93/34/36
f 94/17/37 95/52/37 96/53/37
f 94/17/37 96/53/37 97/18/37
s 0
f 98/21/38 99/33/38 100/35/38
f 98/21/38 100/35/38 101/55/38
o openbook_bookpapers_0
v -0.172972 0.406959 0.066334
v -0.242078 0.050716 0.058719
v 0.276035 -0.026575 0.000935
v 0.335289 0.318650 0.009866
v -0.245385 0.030512 0.060397
v -0.295649 -0.315686 0.088346
v 0.212621 -0.403951 0.031882
v 0.269701 -0.064568 0.003106
v -0.253847 0.006747 0.021588
v 0.261345 -0.086997 -0.036786
v 0.207784 -0.404867 -0.009834
v -0.300488 -0.316601 0.046629
v -0.177809 0.406043 0.024617
v 0.330452 0.317735 -0.031851
v 0.274361 -0.008769 -0.041468
v -0.242390 0.076569 0.016021
v -0.248580 0.039961 0.017363
v -0.249397 0.034806 0.018018
v -0.245385 0.030512 0.060397
v -0.243743 0.040863 0.059080
v -0.242078 0.050716 0.058719
v -0.247656 0.045427 0.017162
v 0.272346 -0.048399 0.001736
v 0.276035 -0.026575 0.000935
v -0.242078 0.050716 0.058719
v -0.243743 0.040863 0.059080
v -0.245385 0.030512 0.060397
v 0.269701 -0.064568 0.003106
v 0.267510 -0.049301 -0.039982
v -0.249397 0.034806 0.018018
v -0.248580 0.039961 0.017363
v -0.247656 0.045427 0.017162
v -0.242390 0.076569 0.016021
v 0.274361 -0.008769 -0.041468
vn 0.1037 -0.0425 0.9937
vn 0.1038 -0.0424 0.9937
vn 0.1215 0.0631 0.9906
vn 0.1212 0.0628 0.9906
vn 0.1214 0.0629 0.9906
vn -0.1207 -0.0550 -0.9912
vn -0.1207 -0.0551 -0.9912
vn -0.1221 -0.0614 -0.9906
vn -0.1220 -0.0612 -0.9906
vn -0.1023 0.0468 -0.9937
vn -0.1029 0.0461 -0.9936
vn -0.9794 0.1693 0.1099
vn -0.9794 0.1694 0.1099
vn -0.9794 0.1696 0.1099
vn -0.9794 0.1695 0.1099
vn 0.1184 0.0460 0.9919
vn -0.1194 -0.0489 -0.9916
vn -0.1193 -0.0489 -0.9916
vt 0.934322 0.070896
vt 0.515967 0.042669
vt 0.535339 0.891132
vt 0.939181 0.915055
vt 0.492266 0.051922
vt 0.087900 0.060498
vt 0.092793 0.904657
vt 0.490860 0.912611
vt 0.460536 0.045318
vt 0.458775 0.910570
vt 0.079533 0.894925
vt 0.076010 0.046915
vt 0.942886 0.053571
vt 0.946359 0.899671
vt 0.560504 0.909789
vt 0.551365 0.044620
vt 0.508130 0.089939
vt 0.504769 0.090384
vt 0.501883 0.118786
vt 0.508634 0.117892
vt 0.515058 0.117639
vt 0.511694 0.089798
vt 0.504441 0.051807
vt 0.509809 0.903403
vt 0.497067 0.050706
vt 0.503777 0.051696
vt 0.510883 0.050639
vt 0.507816 0.910194
s 1
usemtl bookpapers
f 102/59/39 103/60/40 104/61/40
f 102/59/39 104/61/40 105/62/40
f 106/63/41 107/64/42 108/65/41
f 106/63/41 108/65/41 109/66/43
f 110/67/44 111/68/45 112/69/46
f 110/67/44 112/69/46 113/70/47
s 0
f 114/71/48 115/72/48 116/73/48
f 114/71/49 116/73/49 117/74/49
f 118/75/50 119/76/50 120/77/50
f 118/75/51 120/77/51 121/78/51
f 122/79/52 123/80/52 118/75/52
f 122/79/53 118/75/53 121/78/53
s 1
f 129/66/54 127/81/54 128/63/54
f 127/81/54 129/66/54 126/60/54
f 126/60/54 129/66/54 124/82/54
f 126/60/54 124/82/54 125/61/54
f 131/83/55 111/68/45 110/67/44
f 111/68/45 131/83/55 132/84/56
f 111/68/45 132/84/56 133/85/56
f 111/68/45 133/85/56 134/74/56
f 111/68/45 134/74/56 130/86/56
f 130/86/56 134/74/56 135/73/56
o openbook_bookInterior_0
v -0.242390 0.076569 0.016021
v -0.247656 0.045427 0.017162
v -0.242078 0.050716 0.058719
v -0.245385 0.030512 0.060397
v -0.249397 0.034806 0.018018
v -0.253847 0.006747 0.021588
v -0.177809 0.406043 0.024617
v -0.242390 0.076569 0.016021
v -0.242078 0.050716 0.058719
v -0.172972 0.406959 0.066334
v 0.274361 -0.008769 -0.041468
v 0.330452 0.317735 -0.031851
v 0.335289 0.318650 0.009866
v 0.276035 -0.026575 0.000935
v -0.253847 0.006747 0.021588
v -0.300488 -0.316601 0.046629
v -0.295649 -0.315686 0.088346
v -0.245385 0.030512 0.060397
v 0.261345 -0.086997 -0.036786
v 0.267510 -0.049301 -0.039982
v 0.272346 -0.048399 0.001736
v 0.269701 -0.064568 0.003106
v 0.207784 -0.404867 -0.009834
v 0.212621 -0.403951 0.031882
v 0.330452 0.317735 -0.031851
v -0.177809 0.406043 0.024617
v -0.172972 0.406959 0.066334
v 0.335289 0.318650 0.009866
v 0.267510 -0.049301 -0.039982
v 0.272346 -0.048399 0.001736
v -0.300488 -0.316601 0.046629
v 0.207784 -0.404867 -0.009834
v 0.212621 -0.403951 0.031882
v -0.295649 -0.315686 0.088346
vn -0.9794 0.1696 0.1099
vn -0.9794 0.1693 0.1099
vn -0.9755 0.1875 0.1149
vn 0.9795 -0.1691 -0.1098
vn 0.9802 -0.1653 -0.1092
vn 0.9802 -0.1653 -0.1091
vn 0.9801 -0.1658 -0.1091
vn -0.9817 0.1512 0.1158
vn 0.9793 -0.1698 -0.1098
vn 0.9794 -0.1695 -0.1098
vn 0.9793 -0.1701 -0.1097
vn 0.9794 -0.1695 -0.1099
vn 0.9788 -0.1734 -0.1087
vn 0.9788 -0.1740 -0.1086
vn 0.9788 -0.1740 -0.1084
vn 0.1666 0.9852 -0.0409
vn 0.9794 -0.1696 -0.1099
vn 0.9794 -0.1696 -0.1098
vn -0.1665 -0.9852 0.0409
vt 0.032917 0.790567
vt 0.038846 0.855802
vt 0.092941 0.829726
vt 0.028642 0.908858
vt 0.091458 0.931640
vt 0.100143 0.874740
vt 0.034649 0.136146
vt 0.094556 0.122138
vt 0.027921 0.231980
vt 0.027210 0.845668
vt 0.094541 0.858994
vt 0.094960 0.208047
vt 0.097988 0.264120
vt 0.030363 0.251875
vt 0.027542 0.765929
vt 0.033788 0.839412
vt 0.099255 0.827569
vt 0.096576 0.796049
vt 0.032547 0.182387
vt 0.098015 0.170544
vt 0.090184 0.887938
vt 0.090184 0.106347
vt 0.038472 0.106413
vt 0.038472 0.888003
vt 0.027290 0.151259
vt 0.094621 0.164585
vt 0.041356 0.137222
vt 0.041357 0.845769
vt 0.081011 0.845829
vt 0.081011 0.137282
s 0
usemtl bookInterior
f 136/87/57 137/88/57 138/89/57
f 139/90/58 140/91/58 141/92/58
s 1
f 142/93/59 143/87/59 144/89/59
f 142/93/59 144/89/59 145/94/59
f 146/95/60 147/96/61 148/97/62
f 146/95/60 148/97/62 149/98/63
f 150/92/64 151/99/64 152/100/64
f 150/92/64 152/100/64 153/90/64
s 0
f 154/101/65 155/102/66 156/103/66
s 1
f 154/101/67 156/103/68 157/104/69
f 158/105/70 154/101/67 157/104/69
f 158/105/70 157/104/69 159/106/71
s 0
f 160/107/72 161/108/72 162/109/72
f 160/107/72 162/109/72 163/110/72
s 1
f 164/111/73 146/95/60 149/98/63
f 164/111/73 149/98/63 165/112/74
s 0
f 166/113/75 167/114/75 168/115/75
f 166/113/75 168/115/75 169/116/75
