# Blender 4.0.1
# www.blender.org
mtllib pianostool.mtl
o pianoStool_CrackedWood_0
v 0.000000 0.531567 2.019883
v 0.000000 0.531567 2.087621
v 0.819767 0.531567 2.087621
v 0.819767 0.531567 2.019883
v 0.969518 0.531567 2.055816
v 0.969518 0.531567 2.003981
v 0.969518 -0.403605 2.003981
v 0.969518 -0.403605 2.055816
v 0.969518 -0.531567 2.055816
v 0.969518 -0.531567 2.003981
v 0.000000 -0.403605 1.752362
v 0.819767 -0.403605 1.752362
v 0.819767 -0.531567 1.752362
v 0.000000 -0.531567 1.752362
v 0.969518 0.531567 1.752362
v 0.969518 0.413767 1.752362
v 0.943312 0.399966 0.040051
v 0.943312 0.513813 0.040051
v 0.819767 0.413767 2.284097
v 0.819767 -0.403605 2.284097
v 0.819767 -0.403605 2.399360
v 0.819767 0.413767 2.399360
v 0.819767 -0.531567 2.019883
v 0.819767 -0.531567 2.087621
v 0.000000 -0.531567 2.087621
v 0.000000 -0.531567 2.019883
v 0.969518 -0.531567 2.003981
v 0.969518 -0.531567 2.055816
v 0.819767 -0.531567 2.284097
v 0.819767 -0.504332 2.351943
v 0.819767 0.413767 1.752362
v 0.819767 0.531567 1.752362
v 0.845973 0.513813 0.040051
v 0.845973 0.399966 0.040051
v 0.819767 0.413767 1.752362
v 0.969518 0.413767 1.752362
v 0.969518 -0.403605 1.752362
v 0.000000 0.531567 1.752362
v 0.819767 0.531567 1.752362
v 0.000000 0.413767 1.752362
v 0.969518 0.531567 2.003981
v 0.969518 0.531567 2.055816
v 0.969518 0.413767 2.055816
v 0.969518 0.413767 2.003981
v 0.969518 -0.403605 2.399360
v 0.819767 -0.403605 2.399360
v 0.819767 -0.504332 2.351943
v 0.969518 -0.504332 2.351943
v 0.969518 0.504332 2.351943
v 0.819767 0.504332 2.351943
v 0.819767 0.413767 2.399360
v 0.969518 0.413767 2.399360
v 0.969518 -0.531567 2.284097
v 0.969518 -0.403605 2.284097
v 0.969518 -0.403605 2.399360
v 0.969518 -0.504332 2.351943
v 0.819767 0.531567 2.284097
v 0.819767 0.504332 2.351943
v 0.969518 0.413767 2.284097
v 0.969518 -0.403605 2.284097
v 0.819767 -0.403605 2.284097
v 0.819767 0.413767 2.284097
v 0.969518 0.413767 2.284097
v 0.969518 0.531567 2.284097
v 0.969518 0.504332 2.351943
v 0.969518 0.413767 2.399360
v 0.819767 -0.531567 2.284097
v 0.969518 -0.531567 2.284097
v 0.969518 -0.504332 2.351943
v 0.819767 -0.504332 2.351943
v 0.969518 0.531567 2.284097
v 0.819767 0.531567 2.284097
v 0.819767 0.504332 2.351943
v 0.969518 0.504332 2.351943
v 0.969518 -0.531567 2.284097
v 0.819767 -0.531567 2.284097
v 0.969518 -0.403605 2.055816
v 0.819767 -0.403605 2.124866
v 0.819767 -0.403605 2.284097
v 0.969518 -0.403605 2.284097
v 0.819767 -0.403605 2.124866
v 0.819767 -0.531567 2.087621
v 0.819767 0.531567 2.284097
v 0.969518 0.531567 2.284097
v 0.819767 0.531567 2.087621
v 0.819767 0.413767 2.124866
v 0.819767 0.413767 2.124866
v 0.969518 0.413767 2.055816
v 0.969518 0.413767 2.284097
v 0.819767 0.413767 2.284097
v 0.819767 0.413767 2.399360
v 0.819767 -0.403605 2.399360
v 0.969518 -0.403605 2.399360
v 0.969518 0.413767 2.399360
v 0.969518 0.413767 1.752362
v 0.969518 -0.403605 1.752362
v 0.969518 0.531567 1.752362
v 0.969518 -0.531567 1.752362
v 0.819767 -0.531567 1.752362
v 0.000000 -0.531567 1.752362
v 0.969518 -0.531567 1.752362
v 0.819767 0.531567 1.752362
v 0.969518 0.531567 1.752362
v 0.000000 0.531567 1.752362
v 0.845973 -0.389975 0.040051
v 0.943312 -0.389975 0.040051
v 0.943312 -0.513642 0.040051
v 0.845973 -0.513642 0.040051
v 0.845973 0.513813 0.040051
v 0.943312 0.513813 0.040051
v 0.943312 0.399966 0.040051
v 0.845973 0.399966 0.040051
v 0.969518 0.413767 1.752362
v 0.819767 0.413767 1.752362
v 0.845973 0.399966 0.040051
v 0.943312 0.399966 0.040051
v 0.943312 0.513813 0.040051
v 0.845973 0.513813 0.040051
v 0.819767 -0.531567 1.752362
v 0.819767 -0.403605 1.752362
v 0.845973 -0.389975 0.040051
v 0.845973 -0.513642 0.040051
v 0.845973 -0.513642 0.040051
v 0.943312 -0.513642 0.040051
v 0.819767 -0.403605 1.752362
v 0.969518 -0.403605 1.752362
v 0.943312 -0.389975 0.040051
v 0.845973 -0.389975 0.040051
v 0.969518 -0.403605 1.752362
v 0.969518 -0.531567 1.752362
v 0.943312 -0.513642 0.040051
v 0.943312 -0.389975 0.040051
v -0.819767 0.531567 2.019883
v -0.819767 0.531567 2.087621
v -0.969518 0.531567 2.003981
v -0.969518 0.531567 2.055816
v -0.969518 -0.403605 2.003981
v -0.969518 -0.531567 2.003981
v -0.969518 -0.531567 2.055816
v -0.969518 -0.403605 2.055816
v -0.819767 -0.531567 1.752362
v -0.819767 -0.403605 1.752362
v -0.969518 0.531567 1.752362
v -0.943312 0.513813 0.040051
v -0.943312 0.399966 0.040051
v -0.969518 0.413767 1.752362
v -0.819767 0.413767 2.284097
v -0.819767 0.413767 2.399360
v -0.819767 -0.403605 2.399360
v -0.819767 -0.403605 2.284097
v -0.819767 -0.531567 2.019883
v -0.819767 -0.531567 2.087621
v -0.969518 -0.531567 2.003981
v -0.969518 -0.531567 2.055816
v -0.819767 -0.504332 2.351943
v -0.819767 -0.531567 2.284097
v -0.819767 0.413767 1.752362
v -0.845973 0.399966 0.040051
v -0.845973 0.513813 0.040051
v -0.819767 0.531567 1.752362
v -0.819767 0.413767 1.752362
v -0.969518 -0.403605 1.752362
v -0.969518 0.413767 1.752362
v -0.819767 0.531567 1.752362
v -0.969518 0.531567 2.003981
v -0.969518 0.413767 2.003981
v -0.969518 0.413767 2.055816
v -0.969518 0.531567 2.055816
v -0.969518 -0.403605 2.399360
v -0.969518 -0.504332 2.351943
v -0.819767 -0.504332 2.351943
v -0.819767 -0.403605 2.399360
v -0.969518 0.504332 2.351943
v -0.969518 0.413767 2.399360
v -0.819767 0.413767 2.399360
v -0.819767 0.504332 2.351943
v -0.969518 -0.531567 2.284097
v -0.969518 -0.504332 2.351943
v -0.969518 -0.403605 2.399360
v -0.969518 -0.403605 2.284097
v -0.819767 0.531567 2.284097
v -0.819767 0.504332 2.351943
v -0.969518 0.413767 2.284097
v -0.819767 0.413767 2.284097
v -0.819767 -0.403605 2.284097
v -0.969518 -0.403605 2.284097
v -0.969518 0.413767 2.284097
v -0.969518 0.413767 2.399360
v -0.969518 0.504332 2.351943
v -0.969518 0.531567 2.284097
v -0.819767 -0.531567 2.284097
v -0.819767 -0.504332 2.351943
v -0.969518 -0.504332 2.351943
v -0.969518 -0.531567 2.284097
v -0.969518 0.531567 2.284097
v -0.969518 0.504332 2.351943
v -0.819767 0.504332 2.351943
v -0.819767 0.531567 2.284097
v -0.819767 -0.531567 2.284097
v -0.969518 -0.531567 2.284097
v -0.969518 -0.403605 2.055816
v -0.969518 -0.403605 2.284097
v -0.819767 -0.403605 2.284097
v -0.819767 -0.403605 2.124866
v -0.819767 -0.403605 2.124866
v -0.819767 -0.531567 2.087621
v -0.969518 0.531567 2.284097
v -0.819767 0.531567 2.284097
v -0.819767 0.531567 2.087621
v -0.819767 0.413767 2.124866
v -0.819767 0.413767 2.124866
v -0.819767 0.413767 2.284097
v -0.969518 0.413767 2.284097
v -0.969518 0.413767 2.055816
v -0.819767 0.413767 2.399360
v -0.969518 0.413767 2.399360
v -0.969518 -0.403605 2.399360
v -0.819767 -0.403605 2.399360
v -0.969518 0.413767 1.752362
v -0.969518 -0.403605 1.752362
v -0.969518 0.531567 1.752362
v -0.969518 -0.531567 1.752362
v -0.819767 -0.531567 1.752362
v -0.969518 -0.531567 1.752362
v -0.819767 0.531567 1.752362
v -0.969518 0.531567 1.752362
v -0.845973 -0.389975 0.040051
v -0.845973 -0.513642 0.040051
v -0.943312 -0.513642 0.040051
v -0.943312 -0.389975 0.040051
v -0.845973 0.513813 0.040051
v -0.845973 0.399966 0.040051
v -0.943312 0.399966 0.040051
v -0.943312 0.513813 0.040051
v -0.969518 0.413767 1.752362
v -0.943312 0.399966 0.040051
v -0.845973 0.399966 0.040051
v -0.819767 0.413767 1.752362
v -0.845973 0.513813 0.040051
v -0.943312 0.513813 0.040051
v -0.819767 -0.531567 1.752362
v -0.845973 -0.513642 0.040051
v -0.845973 -0.389975 0.040051
v -0.819767 -0.403605 1.752362
v -0.943312 -0.513642 0.040051
v -0.845973 -0.513642 0.040051
v -0.819767 -0.403605 1.752362
v -0.845973 -0.389975 0.040051
v -0.943312 -0.389975 0.040051
v -0.969518 -0.403605 1.752362
v -0.969518 -0.403605 1.752362
v -0.943312 -0.389975 0.040051
v -0.943312 -0.513642 0.040051
v -0.969518 -0.531567 1.752362
vn -0.0000 1.0000 -0.0000
vn 1.0000 -0.0000 -0.0000
vn -0.0000 -0.0000 -1.0000
vn 0.9999 -0.0000 -0.0153
vn -1.0000 -0.0000 -0.0000
vn -0.0000 -1.0000 -0.0000
vn -0.9999 -0.0000 -0.0153
vn -0.0000 -0.4259 0.9048
vn -0.0000 0.4638 0.8859
vn -0.0000 -0.9280 0.3725
vn -0.0000 0.9280 0.3725
vn -0.0000 -0.0000 1.0000
vn -0.0000 -1.0000 -0.0052
vn -0.0000 -1.0000 -0.0035
vn -0.0000 1.0000 -0.0034
vn -0.0000 1.0000 -0.0052
vn -0.0000 -1.0000 0.0081
vn -0.0000 0.9999 -0.0104
vn -0.0000 -0.9999 -0.0105
vn -0.0000 1.0000 0.0080
vt 0.156654 0.423700
vt 0.156654 0.394989
vt 0.504115 0.394989
vt 0.504115 0.423700
vt 0.567587 0.408469
vt 0.567587 0.430440
vt 0.327854 0.430440
vt 0.327854 0.408469
vt 0.273617 0.408469
vt 0.273617 0.430440
vt 0.156654 0.672146
vt 0.504115 0.672146
vt 0.504115 0.726383
vt 0.156654 0.726383
vt 0.724230 0.537090
vt 0.674299 0.537090
vt 0.668450 1.262858
vt 0.716704 1.262858
vt 0.674299 0.311712
vt 0.327854 0.311712
vt 0.327854 0.262858
vt 0.674299 0.262858
vt 0.273617 0.311712
vt 0.285161 0.282955
vt 0.504115 0.325701
vt 0.567587 0.325701
vt 0.567587 0.672146
vt 0.156654 0.275770
vt 0.504115 0.275770
vt 0.156654 0.325701
vt 0.724230 0.430440
vt 0.724230 0.408469
vt 0.674299 0.408469
vt 0.674299 0.430440
vt 0.504115 0.714839
vt 0.567587 0.714839
vt 0.567587 0.287314
vt 0.504115 0.287314
vt 0.724230 0.311712
vt 0.712686 0.282955
vt 0.504115 0.311712
vt 0.567587 0.311712
vt 0.567587 0.282955
vt 0.504115 0.282955
vt 0.504115 0.379203
vt 0.327854 0.379203
vt 0.273617 0.394989
vt 0.724230 0.394989
vt 0.674299 0.379203
vt 0.327854 0.537090
vt 0.567587 0.537090
vt 0.504115 0.537090
vt 0.156654 0.537090
vt 0.273617 0.537090
vt 0.515222 0.666369
vt 0.556480 0.666369
vt 0.556480 0.718786
vt 0.515222 0.718786
vt 0.515222 0.283296
vt 0.556480 0.283296
vt 0.556480 0.331550
vt 0.515222 0.331550
vt 0.515222 1.262858
vt 0.556480 1.262858
vt 0.333631 1.262858
vt 0.281214 1.262858
s 0
usemtl CrackedWood
f 1/1/1 2/2/1 3/3/1
f 1/1/1 3/3/1 4/4/1
f 4/4/1 3/3/1 5/5/1
f 4/4/1 5/5/1 6/6/1
f 7/7/2 8/8/2 9/9/2
f 7/7/2 9/9/2 10/10/2
f 11/11/3 12/12/3 13/13/3
f 11/11/3 13/13/3 14/14/3
f 15/15/4 16/16/4 17/17/4
f 15/15/4 17/17/4 18/18/4
f 19/19/5 20/20/5 21/21/5
f 19/19/5 21/21/5 22/22/5
f 23/4/6 24/3/6 25/2/6
f 23/4/6 25/2/6 26/1/6
f 27/6/6 28/5/6 24/3/6
f 27/6/6 24/3/6 23/4/6
f 20/20/5 29/23/5 30/24/5
f 20/20/5 30/24/5 21/21/5
f 31/16/7 32/15/7 33/18/7
f 31/16/7 33/18/7 34/17/7
f 35/25/3 36/26/3 37/27/3
f 35/25/3 37/27/3 12/12/3
f 38/28/3 39/29/3 35/25/3
f 38/28/3 35/25/3 40/30/3
f 40/30/3 35/25/3 12/12/3
f 40/30/3 12/12/3 11/11/3
f 41/31/2 42/32/2 43/33/2
f 41/31/2 43/33/2 44/34/2
f 44/34/2 43/33/2 8/8/2
f 44/34/2 8/8/2 7/7/2
f 45/27/8 46/12/8 47/35/8
f 45/27/8 47/35/8 48/36/8
f 49/37/9 50/38/9 51/25/9
f 49/37/9 51/25/9 52/26/9
f 53/23/2 54/20/2 55/21/2
f 53/23/2 55/21/2 56/24/2
f 57/39/5 19/19/5 22/22/5
f 57/39/5 22/22/5 58/40/5
f 59/26/3 60/27/3 61/12/3
f 59/26/3 61/12/3 62/25/3
f 63/19/2 64/39/2 65/40/2
f 63/19/2 65/40/2 66/22/2
f 67/41/10 68/42/10 69/43/10
f 67/41/10 69/43/10 70/44/10
f 71/42/11 72/41/11 73/44/11
f 71/42/11 73/44/11 74/43/11
f 24/3/6 28/5/6 75/42/6
f 24/3/6 75/42/6 76/41/6
f 77/5/1 78/45/1 79/41/1
f 77/5/1 79/41/1 80/42/1
f 9/9/2 8/8/2 54/20/2
f 9/9/2 54/20/2 53/23/2
f 81/46/5 82/47/5 29/23/5
f 81/46/5 29/23/5 20/20/5
f 5/5/1 3/3/1 83/41/1
f 5/5/1 83/41/1 84/42/1
f 43/33/2 42/32/2 64/39/2
f 43/33/2 64/39/2 63/19/2
f 85/48/5 86/49/5 19/19/5
f 85/48/5 19/19/5 57/39/5
f 87/45/6 88/5/6 89/42/6
f 87/45/6 89/42/6 90/41/6
f 91/25/12 92/12/12 93/27/12
f 91/25/12 93/27/12 94/26/12
f 66/22/2 55/21/2 54/20/2
f 66/22/2 54/20/2 63/19/2
f 95/16/2 44/34/2 7/7/2
f 95/16/2 7/7/2 96/50/2
f 97/15/2 41/31/2 44/34/2
f 97/15/2 44/34/2 95/16/2
s 1
f 98/51/13 27/6/6 23/4/6
f 98/51/13 23/4/6 99/52/14
f 99/52/14 23/4/6 26/1/6
f 99/52/14 26/1/6 100/53/6
s 0
f 96/50/2 7/7/2 10/10/2
f 96/50/2 10/10/2 101/54/2
s 1
f 102/52/15 4/4/1 6/6/1
f 102/52/15 6/6/1 103/51/16
s 0
f 104/53/1 1/1/1 4/4/1
s 1
f 104/53/1 4/4/1 102/52/15
s 0
f 105/55/3 106/56/3 107/57/3
f 105/55/3 107/57/3 108/58/3
f 109/59/3 110/60/3 111/61/3
f 109/59/3 111/61/3 112/62/3
f 113/51/17 114/52/17 115/63/17
f 113/51/17 115/63/17 116/64/17
s 1
f 102/52/15 103/51/16 117/64/18
f 102/52/15 117/64/18 118/63/18
s 0
f 119/54/7 120/50/7 121/65/7
f 119/54/7 121/65/7 122/66/7
s 1
f 98/51/13 99/52/14 123/63/19
f 98/51/13 123/63/19 124/64/19
s 0
f 125/52/20 126/51/20 127/64/20
f 125/52/20 127/64/20 128/63/20
f 129/50/4 130/54/4 131/66/4
f 129/50/4 131/66/4 132/65/4
f 1/1/1 133/4/1 134/3/1
f 1/1/1 134/3/1 2/2/1
f 133/4/1 135/6/1 136/5/1
f 133/4/1 136/5/1 134/3/1
f 137/7/5 138/10/5 139/9/5
f 137/7/5 139/9/5 140/8/5
f 11/11/3 14/14/3 141/13/3
f 11/11/3 141/13/3 142/12/3
f 143/15/7 144/18/7 145/17/7
f 143/15/7 145/17/7 146/16/7
f 147/19/2 148/22/2 149/21/2
f 147/19/2 149/21/2 150/20/2
f 151/4/6 26/1/6 25/2/6
f 151/4/6 25/2/6 152/3/6
f 153/6/6 151/4/6 152/3/6
f 153/6/6 152/3/6 154/5/6
f 150/20/2 149/21/2 155/24/2
f 150/20/2 155/24/2 156/23/2
f 157/16/4 158/17/4 159/18/4
f 157/16/4 159/18/4 160/15/4
f 161/25/3 142/12/3 162/27/3
f 161/25/3 162/27/3 163/26/3
f 38/28/3 40/30/3 161/25/3
f 38/28/3 161/25/3 164/29/3
f 40/30/3 11/11/3 142/12/3
f 40/30/3 142/12/3 161/25/3
f 165/31/5 166/34/5 167/33/5
f 165/31/5 167/33/5 168/32/5
f 166/34/5 137/7/5 140/8/5
f 166/34/5 140/8/5 167/33/5
f 169/27/8 170/36/8 171/35/8
f 169/27/8 171/35/8 172/12/8
f 173/37/9 174/26/9 175/25/9
f 173/37/9 175/25/9 176/38/9
f 177/23/5 178/24/5 179/21/5
f 177/23/5 179/21/5 180/20/5
f 181/39/2 182/40/2 148/22/2
f 181/39/2 148/22/2 147/19/2
f 183/26/3 184/25/3 185/12/3
f 183/26/3 185/12/3 186/27/3
f 187/19/5 188/22/5 189/40/5
f 187/19/5 189/40/5 190/39/5
f 191/41/10 192/44/10 193/43/10
f 191/41/10 193/43/10 194/42/10
f 195/42/11 196/43/11 197/44/11
f 195/42/11 197/44/11 198/41/11
f 152/3/6 199/41/6 200/42/6
f 152/3/6 200/42/6 154/5/6
f 201/5/1 202/42/1 203/41/1
f 201/5/1 203/41/1 204/45/1
f 139/9/5 177/23/5 180/20/5
f 139/9/5 180/20/5 140/8/5
f 205/46/2 150/20/2 156/23/2
f 205/46/2 156/23/2 206/47/2
f 136/5/1 207/42/1 208/41/1
f 136/5/1 208/41/1 134/3/1
f 167/33/5 187/19/5 190/39/5
f 167/33/5 190/39/5 168/32/5
f 209/48/2 181/39/2 147/19/2
f 209/48/2 147/19/2 210/49/2
f 211/45/6 212/41/6 213/42/6
f 211/45/6 213/42/6 214/5/6
f 215/25/12 216/26/12 217/27/12
f 215/25/12 217/27/12 218/12/12
f 188/22/5 187/19/5 180/20/5
f 188/22/5 180/20/5 179/21/5
f 219/16/5 220/50/5 137/7/5
f 219/16/5 137/7/5 166/34/5
f 221/15/5 219/16/5 166/34/5
f 221/15/5 166/34/5 165/31/5
s 1
f 222/51/13 223/52/14 151/4/6
f 222/51/13 151/4/6 153/6/6
f 223/52/14 100/53/6 26/1/6
f 223/52/14 26/1/6 151/4/6
s 0
f 220/50/5 224/54/5 138/10/5
f 220/50/5 138/10/5 137/7/5
s 1
f 225/52/15 226/51/16 135/6/1
f 225/52/15 135/6/1 133/4/1
f 104/53/1 225/52/15 133/4/1
s 0
f 104/53/1 133/4/1 1/1/1
f 227/55/3 228/58/3 229/57/3
f 227/55/3 229/57/3 230/56/3
f 231/59/3 232/62/3 233/61/3
f 231/59/3 233/61/3 234/60/3
f 235/51/17 236/64/17 237/63/17
f 235/51/17 237/63/17 238/52/17
s 1
f 225/52/15 239/63/18 240/64/18
f 225/52/15 240/64/18 226/51/16
s 0
f 241/54/4 242/66/4 243/65/4
f 241/54/4 243/65/4 244/50/4
s 1
f 222/51/13 245/64/19 246/63/19
f 222/51/13 246/63/19 223/52/14
s 0
f 247/52/20 248/63/20 249/64/20
f 247/52/20 249/64/20 250/51/20
f 251/50/7 252/65/7 253/66/7
f 251/50/7 253/66/7 254/54/7
o pianoStool_PianoCush_0
v 0.819767 -0.403605 2.124866
v 0.000000 -0.403605 2.124866
v 0.000000 -0.531567 2.087621
v 0.819767 -0.531567 2.087621
v 0.819767 0.531567 2.087621
v 0.000000 0.531567 2.087621
v 0.000000 0.413767 2.124866
v 0.819767 0.413767 2.124866
v 0.819767 0.413767 2.124866
v 0.000000 0.413767 2.124866
v 0.000000 -0.403605 2.124866
v 0.819767 -0.403605 2.124866
v 0.969518 0.413767 2.055816
v 0.819767 0.413767 2.124866
v 0.819767 -0.403605 2.124866
v 0.969518 -0.403605 2.055816
v -0.819767 -0.403605 2.124866
v -0.819767 -0.531567 2.087621
v -0.819767 0.531567 2.087621
v -0.819767 0.413767 2.124866
v -0.819767 0.413767 2.124866
v -0.819767 -0.403605 2.124866
v -0.969518 0.413767 2.055816
v -0.969518 -0.403605 2.055816
v -0.819767 -0.403605 2.124866
v -0.819767 0.413767 2.124866
vn -0.0000 -0.2795 0.9602
vn -0.0000 0.3015 0.9535
vn -0.0000 -0.0000 1.0000
vn 0.4187 -0.0000 0.9081
vn -0.4187 -0.0000 0.9081
vt 0.504115 0.672146
vt 0.156654 0.672146
vt 0.156654 0.726383
vt 0.504115 0.726383
vt 0.504115 0.275770
vt 0.156654 0.275770
vt 0.156654 0.325701
vt 0.504115 0.325701
vt 0.567587 0.325701
vt 0.567587 0.672146
s 0
usemtl PianoCush
f 255/67/21 256/68/21 257/69/21
f 255/67/21 257/69/21 258/70/21
f 259/71/22 260/72/22 261/73/22
f 259/71/22 261/73/22 262/74/22
f 263/74/23 264/73/23 265/68/23
f 263/74/23 265/68/23 266/67/23
f 267/75/24 268/74/24 269/67/24
f 267/75/24 269/67/24 270/76/24
f 271/67/21 272/70/21 257/69/21
f 271/67/21 257/69/21 256/68/21
f 273/71/22 274/74/22 261/73/22
f 273/71/22 261/73/22 260/72/22
f 275/74/23 276/67/23 265/68/23
f 275/74/23 265/68/23 264/73/23
f 277/75/25 278/76/25 279/67/25
f 277/75/25 279/67/25 280/74/25
