# Blender 4.0.1
# www.blender.org
mtllib portrait.mtl
o PortraitDog_frame_0
v -1.000000 -0.100000 -1.000000
v -1.000000 -0.100000 1.500000
v -1.000000 0.100000 1.500000
v -1.000000 0.100000 -1.000000
v -1.000000 0.100000 -1.000000
v -1.000000 0.100000 1.500000
v 1.000000 0.100000 1.500000
v 1.000000 0.100000 -1.000000
v 1.000000 0.100000 -1.000000
v 1.000000 0.100000 1.500000
v 1.000000 -0.100000 1.500000
v 1.000000 -0.100000 -1.000000
v -1.000000 0.100000 -1.000000
v 1.000000 0.100000 -1.000000
v 1.000000 -0.100000 -1.000000
v -1.000000 -0.100000 -1.000000
v 1.000000 0.100000 1.500000
v -1.000000 0.100000 1.500000
v -1.000000 -0.100000 1.500000
v 1.000000 -0.100000 1.500000
v -0.860508 -0.100000 -0.860508
v -0.860508 -0.100000 1.360508
v -1.000000 -0.100000 1.500000
v -1.000000 -0.100000 -1.000000
v 0.860508 -0.100000 1.360508
v 0.860508 -0.100000 -0.860508
v 1.000000 -0.100000 -1.000000
v 1.000000 -0.100000 1.500000
vn -1.0000 -0.0000 -0.0000
vn -0.0000 1.0000 -0.0000
vn 1.0000 -0.0000 -0.0000
vn -0.0000 -0.0000 -1.0000
vn -0.0000 -0.0000 1.0000
vn -0.0000 -1.0000 -0.0000
vt 0.830663 0.943770
vt 0.178754 0.943770
vt 0.178754 0.980147
vt 0.830663 0.980147
vt 0.406975 0.651990
vt 0.532263 0.651990
vt 0.532263 0.526701
vt 0.406975 0.526701
vt 0.787297 0.942804
vt 0.205107 0.942804
vt 0.205107 0.982582
vt 0.787297 0.982582
vt 0.241201 0.980308
vt 0.758799 0.980308
vt 0.758799 0.938051
vt 0.241201 0.938051
vt 0.195837 0.977142
vt 0.804163 0.977142
vt 0.804163 0.941217
vt 0.195837 0.941217
vt 0.889318 0.911403
vt 0.889318 0.102162
vt 0.971470 0.025653
vt 0.984280 0.976223
vt 0.113696 0.102162
vt 0.113696 0.911403
vt 0.020241 0.976223
vt 0.029284 0.021347
s 0
usemtl frame
f 1/1/1 2/2/1 3/3/1
f 1/1/1 3/3/1 4/4/1
f 5/5/2 6/6/2 7/7/2
f 5/5/2 7/7/2 8/8/2
f 9/9/3 10/10/3 11/11/3
f 9/9/3 11/11/3 12/12/3
f 13/13/4 14/14/4 15/15/4
f 13/13/4 15/15/4 16/16/4
f 17/17/5 18/18/5 19/19/5
f 17/17/5 19/19/5 20/20/5
f 21/21/6 22/22/6 23/23/6
f 21/21/6 23/23/6 24/24/6
f 25/25/6 26/26/6 27/27/6
f 25/25/6 27/27/6 28/28/6
f 26/26/6 21/21/6 24/24/6
f 26/26/6 24/24/6 27/27/6
f 22/22/6 25/25/6 28/28/6
f 22/22/6 28/28/6 23/23/6
o PortraitDog_dogport_0
v 0.860508 -0.100000 -0.860508
v 0.860508 -0.100000 1.360508
v -0.860508 -0.100000 1.360508
v -0.860508 -0.100000 -0.860508
vn -0.0000 -1.0000 -0.0000
vt 0.992838 0.999227
vt 0.992838 0.004679
vt 0.004699 0.004679
vt 0.004699 0.999227
s 0
usemtl dogport
f 29/29/7 30/30/7 31/31/7
f 29/29/7 31/31/7 32/32/7
