# Blender 4.0.1
# www.blender.org
mtllib posters-2.mtl
o Plane.010
v -1.050713 1.847169 -8.535356
v -1.050714 3.847169 -8.535356
v 0.130856 1.847169 -8.535356
v 0.130856 3.847169 -8.535356
vn -0.0000 -0.0000 -1.0000
vt -0.002248 -0.000928
vt 0.000079 1.000675
vt 1.002248 0.997398
vt 0.999921 -0.004204
s 0
usemtl poster3
f 1/1/1 2/2/1 4/3/1 3/4/1
o Plane.013
v 0.442682 1.864981 -8.467746
v 0.442682 3.864981 -8.467746
v 1.624252 1.864981 -8.467746
v 1.624252 3.864981 -8.467746
vn -0.0000 -0.0000 -1.0000
vt 0.004267 0.002108
vt 0.005874 0.998419
vt 0.995733 0.996127
vt 0.994126 -0.000183
s 0
usemtl poster4
f 5/5/2 6/6/2 8/7/2 7/8/2
o Plane.014
v -2.527311 1.845505 -8.528894
v -2.527311 3.845505 -8.528894
v -1.345741 1.845505 -8.528894
v -1.345741 3.845505 -8.528894
vn -0.0000 -0.0000 -1.0000
vt 0.006699 0.000491
vt 0.001166 1.000126
vt 0.995945 1.000078
vt 1.003034 0.001432
s 0
usemtl poster2
f 9/9/3 10/10/3 12/11/3 11/12/3
o Plane.015
v -4.046982 1.857215 -8.503397
v -4.046982 3.857215 -8.503397
v -2.865412 1.857215 -8.503397
v -2.865412 3.857215 -8.503397
vn -0.0000 -0.0000 -1.0000
vt 0.003099 -0.002021
vt 0.005278 1.000746
vt 0.997346 0.999207
vt 0.999080 0.003455
s 0
usemtl poster1
f 13/13/4 14/14/4 16/15/4 15/16/4
