# Blender 4.0.1
# www.blender.org
mtllib ps1_antique_radio.mtl
o Cube
v 0.322244 1.953458 -0.743320
v 0.322244 0.004802 -0.743320
v 0.322244 1.953458 0.748866
v 0.322244 0.004802 0.748866
v -0.322244 1.953458 -0.743320
v -0.322244 0.004802 -0.743320
v -0.322244 1.953458 0.748866
v -0.322244 0.004802 0.748866
v 0.322244 2.360013 0.285482
v -0.322244 2.360013 0.285482
v 0.322244 2.360013 -0.279935
v -0.322244 2.360013 -0.279935
vn -1.0000 -0.0000 -0.0000
vn -0.0000 -0.0000 1.0000
vn -0.0000 -1.0000 -0.0000
vn 1.0000 -0.0000 -0.0000
vn -0.0000 -0.0000 -1.0000
vn -0.0000 1.0000 -0.0000
vn -0.0000 0.7517 -0.6595
vn -0.0000 0.7517 0.6595
vt 0.477943 0.805124
vt 0.912302 0.805124
vt 0.777416 0.967953
vt 0.612829 0.967953
vt 0.839305 0.010693
vt 0.839305 0.821847
vt 0.644321 0.821847
vt 0.644322 0.010693
vt 0.912302 0.024672
vt 0.477943 0.024672
vt 0.476917 0.023572
vt 0.597106 0.023572
vt 0.597106 0.406448
vt 0.476917 0.406448
vt 0.448214 0.018288
vt 0.448214 0.804714
vt 0.010530 0.804714
vt 0.010530 0.018288
vt 0.796914 0.035546
vt 0.796914 0.802826
vt 0.612476 0.802826
vt 0.612476 0.035546
vt 0.490424 0.315667
vt 0.687015 0.315667
vt 0.687014 0.552968
vt 0.490424 0.552968
vt 0.312295 0.968790
vt 0.146449 0.968790
vt 0.657280 0.315031
vt 0.916371 0.315031
vt 0.916371 0.571340
vt 0.657280 0.571340
vt 0.826260 0.464643
vt 0.596220 0.464643
vt 0.596220 0.237074
vt 0.826260 0.237074
s 0
usemtl Material
f 5/1/1 7/2/1 10/3/1 12/4/1
f 4/5/2 3/6/2 7/7/2 8/8/2
f 8/9/1 7/2/1 5/1/1 6/10/1
f 6/11/3 2/12/3 4/13/3 8/14/3
f 2/15/4 1/16/4 3/17/4 4/18/4
f 6/19/5 5/20/5 1/21/5 2/22/5
f 11/23/6 12/24/6 10/25/6 9/26/6
f 3/17/4 1/16/4 11/27/4 9/28/4
f 1/29/7 5/30/7 12/31/7 11/32/7
f 7/33/8 3/34/8 9/35/8 10/36/8
